<?xml version="1.0" standalone="no"?><!DOCTYPE svg PUBLIC "-//W3C//DTD SVG 1.1//EN" "http://www.w3.org/Graphics/SVG/1.1/DTD/svg11.dtd"><svg class="icon" width="200px" height="200.00px" viewBox="0 0 1024 1024" version="1.1" xmlns="http://www.w3.org/2000/svg"><path d="M85.333333 128m85.333334 0l682.666666 0q85.333333 0 85.333334 85.333333l0 597.333334q0 85.333333-85.333334 85.333333l-682.666666 0q-85.333333 0-85.333334-85.333333l0-597.333334q0-85.333333 85.333334-85.333333Z" fill="#A02D67" /><path d="M85.333333 128m85.333334 0l682.666666 0q85.333333 0 85.333334 85.333333l0 512q0 85.333333-85.333334 85.333334l-682.666666 0q-85.333333 0-85.333334-85.333334l0-512q0-85.333333 85.333334-85.333333Z" fill="#D04C83" /><path d="M170.666667 153.6h682.666666A59.733333 59.733333 0 0 1 913.066667 213.333333v512a59.733333 59.733333 0 0 1-59.733334 59.733334H170.666667A59.733333 59.733333 0 0 1 110.933333 725.333333V213.333333A59.733333 59.733333 0 0 1 170.666667 153.6z" fill="#D86097" /><path d="M815.616 509.354667H213.333333a42.666667 42.666667 0 0 0-42.666666 42.666666V785.066667h687.616v-233.045334a42.666667 42.666667 0 0 0-42.666667-42.666666z" fill="#4F2AB5" /><path d="M196.266667 785.066667v-233.045334a17.066667 17.066667 0 0 1 17.066666-17.066666h602.24a17.066667 17.066667 0 0 1 17.066667 17.066666V785.066667z" fill="#6ED6AB" /><path d="M264.106667 665.6v-130.645333h85.333333V665.6a17.066667 17.066667 0 0 1-17.066667 17.066667h-51.2a17.066667 17.066667 0 0 1-17.066666-17.066667zM402.56 665.6v-130.645333h85.333333V665.6a17.066667 17.066667 0 0 1-17.066666 17.066667h-51.2a17.066667 17.066667 0 0 1-17.066667-17.066667zM541.013333 665.6v-130.645333h85.333334V665.6a17.066667 17.066667 0 0 1-17.066667 17.066667h-51.2a17.066667 17.066667 0 0 1-17.066667-17.066667zM679.509333 665.6v-130.645333h85.333334V665.6a17.066667 17.066667 0 0 1-17.066667 17.066667h-51.2a17.066667 17.066667 0 0 1-17.066667-17.066667zM300.714667 682.666667h12.16v102.4h-12.16zM439.168 682.666667h12.16v102.4h-12.16zM577.621333 682.666667h12.16v102.4h-12.16zM716.074667 682.666667h12.16v102.4h-12.16z" fill="#4F2AB5" /><path d="M170.666667 221.226667m42.666666 0l85.333334 0q42.666667 0 42.666666 42.666666l0 4.309334q0 42.666667-42.666666 42.666666l-85.333334 0q-42.666667 0-42.666666-42.666666l0-4.309334q0-42.666667 42.666666-42.666666Z" fill="#D04C83" /><path d="M170.666667 335.701333m42.666666 0l85.333334 0q42.666667 0 42.666666 42.666667l0 4.266667q0 42.666667-42.666666 42.666666l-85.333334 0q-42.666667 0-42.666666-42.666666l0-4.266667q0-42.666667 42.666666-42.666667Z" fill="#D04C83" /><path d="M359.893333 221.226667m42.666667 0l85.333333 0q42.666667 0 42.666667 42.666666l0 4.309334q0 42.666667-42.666667 42.666666l-85.333333 0q-42.666667 0-42.666667-42.666666l0-4.309334q0-42.666667 42.666667-42.666666Z" fill="#D04C83" /><path d="M359.893333 335.701333m42.666667 0l85.333333 0q42.666667 0 42.666667 42.666667l0 4.266667q0 42.666667-42.666667 42.666666l-85.333333 0q-42.666667 0-42.666667-42.666666l0-4.266667q0-42.666667 42.666667-42.666667Z" fill="#D04C83" /><path d="M549.12 221.226667m42.666667 0l223.786666 0q42.666667 0 42.666667 42.666666l0 4.309334q0 42.666667-42.666667 42.666666l-223.786666 0q-42.666667 0-42.666667-42.666666l0-4.309334q0-42.666667 42.666667-42.666666Z" fill="#4F2AB5" /><path d="M660.821333 287.36h-42.666666a21.333333 21.333333 0 0 1 0-42.666667h42.666666a21.333333 21.333333 0 0 1 0 42.666667z" fill="#6ED6AB" /><path d="M789.205333 287.36h-42.666666a21.333333 21.333333 0 0 1 0-42.666667h42.666666a21.333333 21.333333 0 0 1 0 42.666667z" fill="#EDC35B" /><path d="M660.821333 401.834667h-42.666666a21.333333 21.333333 0 1 1 0-42.666667h42.666666a21.333333 21.333333 0 0 1 0 42.666667zM789.205333 401.834667h-42.666666a21.333333 21.333333 0 0 1 0-42.666667h42.666666a21.333333 21.333333 0 0 1 0 42.666667z" fill="#301196" /></svg>