<?xml version="1.0" standalone="no"?><!DOCTYPE svg PUBLIC "-//W3C//DTD SVG 1.1//EN" "http://www.w3.org/Graphics/SVG/1.1/DTD/svg11.dtd"><svg class="icon" width="200px" height="200.00px" viewBox="0 0 1024 1024" version="1.1" xmlns="http://www.w3.org/2000/svg"><path d="M85.333333 128m85.333334 0l682.666666 0q85.333333 0 85.333334 85.333333l0 597.333334q0 85.333333-85.333334 85.333333l-682.666666 0q-85.333333 0-85.333334-85.333333l0-597.333334q0-85.333333 85.333334-85.333333Z" fill="#A02D67" /><path d="M85.333333 128m85.333334 0l682.666666 0q85.333333 0 85.333334 85.333333l0 512q0 85.333333-85.333334 85.333334l-682.666666 0q-85.333333 0-85.333334-85.333334l0-512q0-85.333333 85.333334-85.333333Z" fill="#D04C83" /><path d="M170.666667 153.6h682.666666A59.733333 59.733333 0 0 1 913.066667 213.333333v512a59.733333 59.733333 0 0 1-59.733334 59.733334H170.666667A59.733333 59.733333 0 0 1 110.933333 725.333333V213.333333A59.733333 59.733333 0 0 1 170.666667 153.6z" fill="#D86097" /><path d="M725.333333 341.333333m-170.666666 0a170.666667 170.666667 0 1 0 341.333333 0 170.666667 170.666667 0 1 0-341.333333 0Z" fill="#D04C83" /><path d="M426.666667 469.333333m-298.666667 0a298.666667 298.666667 0 1 0 597.333333 0 298.666667 298.666667 0 1 0-597.333333 0Z" fill="#4F2AB5" /><path d="M426.666667 469.333333m-256 0a256 256 0 1 0 512 0 256 256 0 1 0-512 0Z" fill="#723FDB" /><path d="M426.666667 343.424A125.909333 125.909333 0 1 1 300.757333 469.333333a125.909333 125.909333 0 0 1 125.866667-125.909333m0-10.666667A136.576 136.576 0 1 0 563.285333 469.333333 136.704 136.704 0 0 0 426.666667 332.8z" fill="#301196" /><path d="M426.666667 357.461333A111.872 111.872 0 1 1 314.794667 469.333333 111.872 111.872 0 0 1 426.666667 357.461333m0-10.666666A122.538667 122.538667 0 1 0 549.205333 469.333333 122.666667 122.666667 0 0 0 426.666667 346.794667z" fill="#301196" /><path d="M426.666667 469.333333m-106.666667 0a106.666667 106.666667 0 1 0 213.333333 0 106.666667 106.666667 0 1 0-213.333333 0Z" fill="#EDC35B" /><path d="M426.666667 469.333333m-21.333334 0a21.333333 21.333333 0 1 0 42.666667 0 21.333333 21.333333 0 1 0-42.666667 0Z" fill="#301196" /><path d="M731.861333 725.333333h-42.666666a21.333333 21.333333 0 0 1 0-42.666666h42.666666a21.333333 21.333333 0 1 1 0 42.666666zM832 725.333333h-42.666667a21.333333 21.333333 0 0 1 0-42.666666h42.666667a21.333333 21.333333 0 0 1 0 42.666666z" fill="#301196" /><path d="M832 400.298667m-21.333333 0a21.333333 21.333333 0 1 0 42.666666 0 21.333333 21.333333 0 1 0-42.666666 0Z" fill="#301196" /><path d="M519.68 659.754667l293.632-471.466667 27.136 16.896-293.589333 471.466667z" fill="#301196" /><path d="M838.229333 178.944a32.213333 32.213333 0 0 1 10.282667 44.416l-14.421333 23.125333a32.213333 32.213333 0 1 1-54.613334-34.133333l14.421334-23.082667a32.213333 32.213333 0 0 1 44.373333-10.325333z" fill="#301196" /><path d="M796.885333 328.618667l-11.221333-3.2-55.466667-34.474667a21.333333 21.333333 0 0 1 22.528-36.266667l55.466667 34.474667a21.333333 21.333333 0 0 1-11.306667 39.466667z" fill="#6ED6AB" /><path d="M569.514667 714.410667l-28.757334-28.8 7.509334-7.552 28.8 28.757333-7.552 7.594667z" fill="#301196" /><path d="M538.88 602.325333l54.698667 33.877334-68.565334 67.797333-37.12-21.589333 50.986667-80.085334z" fill="#6ED6AB" /></svg>