<?xml version="1.0" standalone="no"?><!DOCTYPE svg PUBLIC "-//W3C//DTD SVG 1.1//EN" "http://www.w3.org/Graphics/SVG/1.1/DTD/svg11.dtd"><svg t="1695563221228" class="icon" viewBox="0 0 1024 1024" version="1.1" xmlns="http://www.w3.org/2000/svg" p-id="11450" xmlns:xlink="http://www.w3.org/1999/xlink" width="200" height="200"><path d="M237.84106667 957.82684445c-45.8752 0-82.46613333-37.13706667-82.46613334-82.46613334V227.64657778c0-45.32906667 37.13706667-82.46613333 82.46613334-82.46613333h547.77173333c45.8752 0 82.46613333 37.13706667 82.46613333 82.46613333v647.168c0 45.32906667-37.13706667 82.46613333-82.46613333 82.46613333H237.84106667z" fill="#FFBA40" p-id="11451"></path><path d="M786.15893333 170.84871111c31.67573333 0 57.344 25.66826667 57.344 57.344v647.168c0 31.67573333-25.66826667 57.344-57.344 57.344H237.84106667c-31.67573333 0-57.344-25.66826667-57.344-57.344V227.64657778c0-31.67573333 25.66826667-57.344 57.344-57.344h548.31786666m0-50.7904H237.84106667C178.31253333 119.51217778 129.70666667 168.11804445 129.70666667 227.64657778v647.168c0 59.52853333 48.60586667 108.1344 108.1344 108.1344h547.77173333c59.52853333 0 108.1344-48.60586667 108.1344-108.1344V227.64657778c0.54613333-59.52853333-48.05973333-108.1344-107.58826667-108.1344z" fill="#333333" p-id="11452"></path><path d="M237.84106667 869.35324445c-45.8752 0-83.01226667-37.13706667-83.01226667-83.01226667v-649.89866667c0-45.8752 37.13706667-83.01226667 83.01226667-83.01226666h547.77173333c45.8752 0 83.01226667 37.13706667 83.01226667 83.01226666v649.89866667c0 45.8752-37.13706667 83.01226667-83.01226667 83.01226667H237.84106667z" fill="#27C18F" p-id="11453"></path><path d="M786.15893333 79.64444445c31.67573333 0 57.344 25.66826667 57.344 57.344v649.89866666c0 31.67573333-25.66826667 57.344-57.344 57.344H237.84106667c-31.67573333 0-57.344-25.66826667-57.344-57.344v-649.89866666C180.49706667 105.31271111 206.16533333 79.64444445 237.84106667 79.64444445h548.31786666m0-50.7904H237.84106667C178.31253333 28.85404445 129.70666667 77.45991111 129.70666667 136.98844445v649.89866666c0 59.52853333 48.60586667 108.1344 108.1344 108.1344h547.77173333c59.52853333 0 108.1344-48.60586667 108.1344-108.1344v-649.89866666c0.54613333-59.52853333-48.05973333-108.1344-107.58826667-108.1344z" fill="#333333" p-id="11454"></path><path d="M269.5168 299.73617778c-14.19946667 0-25.66826667-11.4688-25.66826667-25.66826667V179.04071111c0-14.19946667 11.4688-25.66826667 25.66826667-25.66826666h484.9664c14.19946667 0 25.66826667 11.4688 25.66826667 25.66826666v95.0272c0 14.19946667-11.4688 25.66826667-25.66826667 25.66826667H269.5168z" fill="#FFBA40" p-id="11455"></path><path d="M754.4832 179.04071111v95.0272H269.5168V179.04071111h484.9664m0-50.7904H269.5168c-28.39893333 0-51.33653333 22.9376-51.33653333 51.33653334v95.0272c0 28.39893333 22.9376 51.33653333 51.33653333 51.33653333h484.9664c28.39893333 0 51.33653333-22.9376 51.33653333-51.33653333V179.04071111c0-27.8528-22.9376-50.7904-51.33653333-50.7904z" fill="#333333" p-id="11456"></path><path d="M236.7488 471.22204445h75.3664" fill="#FFBA40" p-id="11457"></path><path d="M312.1152 496.89031111H236.7488c-14.19946667 0-25.66826667-11.4688-25.66826667-25.66826666S222.54933333 445.55377778 236.7488 445.55377778h75.3664c14.19946667 0 25.66826667 11.4688 25.66826667 25.66826667s-11.4688 25.66826667-25.66826667 25.66826666z" fill="#333333" p-id="11458"></path><path d="M393.48906667 471.22204445h75.91253333" fill="#FFBA40" p-id="11459"></path><path d="M469.4016 496.89031111H393.48906667c-14.19946667 0-25.66826667-11.4688-25.66826667-25.66826666s11.4688-25.66826667 25.66826667-25.66826667h75.3664c14.19946667 0 25.66826667 11.4688 25.66826666 25.66826667s-11.4688 25.66826667-25.12213333 25.66826666z" fill="#333333" p-id="11460"></path><path d="M550.77546667 471.22204445h75.3664" fill="#FFBA40" p-id="11461"></path><path d="M626.14186667 496.89031111h-75.3664c-14.19946667 0-25.66826667-11.4688-25.66826667-25.66826666s11.4688-25.66826667 25.66826667-25.66826667h75.3664c14.19946667 0 25.66826667 11.4688 25.66826666 25.66826667s-11.4688 25.66826667-25.66826666 25.66826666z" fill="#333333" p-id="11462"></path><path d="M708.06186667 471.22204445h75.3664" fill="#FFBA40" p-id="11463"></path><path d="M783.42826667 496.89031111h-75.3664c-14.19946667 0-25.66826667-11.4688-25.66826667-25.66826666s11.4688-25.66826667 25.66826667-25.66826667h75.3664c14.19946667 0 25.66826667 11.4688 25.66826666 25.66826667s-11.4688 25.66826667-25.66826666 25.66826666z" fill="#333333" p-id="11464"></path><path d="M236.7488 583.17937778h75.3664" fill="#FFBA40" p-id="11465"></path><path d="M312.1152 608.84764445H236.7488c-14.19946667 0-25.66826667-11.4688-25.66826667-25.66826667s11.4688-25.66826667 25.66826667-25.66826667h75.3664c14.19946667 0 25.66826667 11.4688 25.66826667 25.66826667s-11.4688 25.66826667-25.66826667 25.66826667z" fill="#333333" p-id="11466"></path><path d="M393.48906667 583.17937778h75.91253333" fill="#FFBA40" p-id="11467"></path><path d="M469.4016 608.84764445H393.48906667c-14.19946667 0-25.66826667-11.4688-25.66826667-25.66826667s11.4688-25.66826667 25.66826667-25.66826667h75.3664c14.19946667 0 25.66826667 11.4688 25.66826666 25.66826667s-11.4688 25.66826667-25.12213333 25.66826667z" fill="#333333" p-id="11468"></path><path d="M550.77546667 583.17937778h75.3664" fill="#FFBA40" p-id="11469"></path><path d="M626.14186667 608.84764445h-75.3664c-14.19946667 0-25.66826667-11.4688-25.66826667-25.66826667s11.4688-25.66826667 25.66826667-25.66826667h75.3664c14.19946667 0 25.66826667 11.4688 25.66826666 25.66826667s-11.4688 25.66826667-25.66826666 25.66826667z" fill="#333333" p-id="11470"></path><path d="M708.06186667 583.17937778h75.3664" fill="#FFBA40" p-id="11471"></path><path d="M783.42826667 608.84764445h-75.3664c-14.19946667 0-25.66826667-11.4688-25.66826667-25.66826667s11.4688-25.66826667 25.66826667-25.66826667h75.3664c14.19946667 0 25.66826667 11.4688 25.66826666 25.66826667s-11.4688 25.66826667-25.66826666 25.66826667z" fill="#333333" p-id="11472"></path><path d="M236.7488 691.31377778h75.3664" fill="#FFBA40" p-id="11473"></path><path d="M312.1152 716.98204445H236.7488c-14.19946667 0-25.66826667-11.4688-25.66826667-25.66826667s11.4688-25.66826667 25.66826667-25.66826667h75.3664c14.19946667 0 25.66826667 11.4688 25.66826667 25.66826667s-11.4688 25.66826667-25.66826667 25.66826667z" fill="#333333" p-id="11474"></path><path d="M393.48906667 691.31377778h75.91253333" fill="#FFBA40" p-id="11475"></path><path d="M469.4016 716.98204445H393.48906667c-14.19946667 0-25.66826667-11.4688-25.66826667-25.66826667s11.4688-25.66826667 25.66826667-25.66826667h75.3664c14.19946667 0 25.66826667 11.4688 25.66826666 25.66826667s-11.4688 25.66826667-25.12213333 25.66826667z" fill="#333333" p-id="11476"></path><path d="M550.77546667 691.31377778h232.6528" fill="#FFBA40" p-id="11477"></path><path d="M783.42826667 716.98204445h-232.6528c-14.19946667 0-25.66826667-11.4688-25.66826667-25.66826667s11.4688-25.66826667 25.66826667-25.66826667h232.6528c14.19946667 0 25.66826667 11.4688 25.66826666 25.66826667s-11.4688 25.66826667-25.66826666 25.66826667z" fill="#333333" p-id="11478"></path></svg>