<?xml version="1.0" standalone="no"?><!DOCTYPE svg PUBLIC "-//W3C//DTD SVG 1.1//EN" "http://www.w3.org/Graphics/SVG/1.1/DTD/svg11.dtd"><svg class="icon" width="200px" height="200.00px" viewBox="0 0 1024 1024" version="1.1" xmlns="http://www.w3.org/2000/svg"><path d="M512 444.970667A67.029333 67.029333 0 1 1 445.013333 512 67.114667 67.114667 0 0 1 512 445.013333m0-10.666666A77.696 77.696 0 1 0 589.653333 512 77.696 77.696 0 0 0 512 434.346667z" fill="#EDC35B" /><path d="M512 85.333333a426.666667 426.666667 0 1 0 426.666667 426.666667A426.666667 426.666667 0 0 0 512 85.333333z m0 456.533334a29.866667 29.866667 0 1 1 29.866667-29.866667 29.866667 29.866667 0 0 1-29.866667 29.866667z" fill="#723FDB" /><path d="M512 913.066667a401.066667 401.066667 0 1 1 401.066667-401.066667 401.493333 401.493333 0 0 1-401.066667 401.066667z m0-456.533334a55.466667 55.466667 0 1 0 55.466667 55.466667 55.509333 55.509333 0 0 0-55.466667-55.466667z" fill="#7750E2" /><path d="M512 320A192 192 0 1 1 320 512 192 192 0 0 1 512 320m0-21.333333a213.333333 213.333333 0 1 0 213.333333 213.333333 213.546667 213.546667 0 0 0-213.333333-213.333333z" fill="#4F2AB5" /><path d="M512 293.248A218.752 218.752 0 1 1 293.248 512 218.752 218.752 0 0 1 512 293.248m0-21.333333A240.085333 240.085333 0 1 0 752.085333 512 240.341333 240.341333 0 0 0 512 271.914667z" fill="#4F2AB5" /><path d="M512 267.008A244.992 244.992 0 1 1 267.008 512 244.992 244.992 0 0 1 512 267.008m0-21.333333A266.325333 266.325333 0 1 0 778.325333 512 266.624 266.624 0 0 0 512 245.674667z" fill="#4F2AB5" /><path d="M512 320a192 192 0 1 0 192 192A192 192 0 0 0 512 320z m0 221.866667a29.866667 29.866667 0 1 1 29.866667-29.866667 29.866667 29.866667 0 0 1-29.866667 29.866667z" fill="#6ED6AB" /><path d="M512 405.333333a106.666667 106.666667 0 1 0 106.666667 106.666667A106.666667 106.666667 0 0 0 512 405.333333z m0 136.533334a29.866667 29.866667 0 1 1 29.866667-29.866667 29.866667 29.866667 0 0 1-29.866667 29.866667z" fill="#4F2AB5" /><path d="M512 444.970667A67.029333 67.029333 0 1 1 445.013333 512 67.114667 67.114667 0 0 1 512 445.013333m0-10.666666A77.696 77.696 0 1 0 589.653333 512 77.696 77.696 0 0 0 512 434.346667z" fill="#EDC35B" /></svg>