<?xml version="1.0" standalone="no"?><!DOCTYPE svg PUBLIC "-//W3C//DTD SVG 1.1//EN" "http://www.w3.org/Graphics/SVG/1.1/DTD/svg11.dtd"><svg t="1695563352395" class="icon" viewBox="0 0 1024 1024" version="1.1" xmlns="http://www.w3.org/2000/svg" p-id="31078" xmlns:xlink="http://www.w3.org/1999/xlink" width="200" height="200"><path d="M724.5 930.5h-425c-86 0-156.4-70.4-156.4-156.4V249.9c0-86 70.4-156.4 156.4-156.4h425c86 0 156.4 70.4 156.4 156.4v524.3c-0.1 85.9-70.4 156.3-156.4 156.3z" fill="#BD9EE2" p-id="31079"></path><path d="M704.1 349.4H319.9c-51.9 0-94.3-42.4-94.3-94.3v-2.8c0-51.9 42.4-94.3 94.3-94.3h384.2c51.9 0 94.3 42.4 94.3 94.3v2.8c0 51.8-42.4 94.3-94.3 94.3zM304.5 377.4h56c28.2 0 51.1 22.9 51.1 51.1v49.2c0 28.2-22.9 51.1-51.1 51.1h-56c-28.2 0-51.1-22.9-51.1-51.1v-49.2c0-28.2 22.9-51.1 51.1-51.1zM484.9 377.4h54.2c28.2 0 51.1 22.9 51.1 51.1v49.2c0 28.2-22.9 51.1-51.1 51.1h-54.2c-28.2 0-51.1-22.9-51.1-51.1v-49.2c0-28.2 22.9-51.1 51.1-51.1zM770.6 428.5v49.2c0 28.2-22.9 51.1-51.1 51.1h-56c-28.2 0-51.1-22.9-51.1-51.1v-49.2c0-28.2 22.9-51.1 51.1-51.1h56c28.2 0 51.1 22.9 51.1 51.1z" fill="#FDF17F" p-id="31080"></path><path d="M304.5 548h56c28.2 0 51.1 22.9 51.1 51.1v49.2c0 28.2-22.9 51.1-51.1 51.1h-56c-28.2 0-51.1-22.9-51.1-51.1V599c0-28.2 22.9-51 51.1-51zM484.9 548h54.2c28.2 0 51.1 22.9 51.1 51.1v49.2c0 28.2-22.9 51.1-51.1 51.1h-54.2c-28.2 0-51.1-22.9-51.1-51.1V599c0-28.2 22.9-51 51.1-51zM770.6 599v49.2c0 28.2-22.9 51.1-51.1 51.1h-56c-28.2 0-51.1-22.9-51.1-51.1V599c0-28.2 22.9-51.1 51.1-51.1h56c28.2 0.1 51.1 22.9 51.1 51.1zM590.2 768.4v49.2c0 28.2-22.9 51.1-51.1 51.1H304.5c-28.2 0-51.1-22.9-51.1-51.1v-49.2c0-28.2 22.9-51.1 51.1-51.1h234.6c28.2 0.1 51.1 22.9 51.1 51.1z" fill="#50E6CC" p-id="31081"></path><path d="M770.6 768.4v49.2c0 28.2-22.9 51.1-51.1 51.1h-56c-28.2 0-51.1-22.9-51.1-51.1v-49.2c0-28.2 22.9-51.1 51.1-51.1h56c28.2 0.1 51.1 22.9 51.1 51.1z" fill="#F9CFD5" p-id="31082"></path><path d="M340.8 304.8h-25.2v-83.2h-17.2l1.5-20.6h40.9v103.8zM387.5 284.2h50.2v19.3h-72.4V245l49.7-5-0.6-19.8h-47.5v-19.3h70.8l1.5 56.6-51.6 5.2-0.1 21.5zM533.6 304.8h-71.7V284h47.9v-22.7h-41v-20.8h41.1v-18.9h-47v-20.8h70.7v104z" fill="#F77490" p-id="31083"></path><path d="M880.8 249.9v524.3c0 86-70.4 156.4-156.4 156.4h-70c86 0 156.4-70.4 156.4-156.4V249.9c0-86-70.4-156.4-156.4-156.4h70c86.1 0 156.4 70.4 156.4 156.4z" fill="#978CDB" p-id="31084"></path><path d="M798.4 252.2v2.8c0 51.9-42.5 94.3-94.3 94.3h-40c51.9 0 94.3-42.5 94.3-94.3v-2.8c0-51.9-42.5-94.3-94.3-94.3h40c51.9 0 94.3 42.4 94.3 94.3zM411.6 428.5v49.2c0 28.2-22.9 51.1-51.1 51.1h-40c28.2 0 51.1-22.9 51.1-51.1v-49.2c0-28.2-22.9-51.1-51.1-51.1h40c28.2 0 51.1 22.8 51.1 51.1zM590.2 428.5v49.2c0 28.2-22.9 51.1-51.1 51.1h-40c28.2 0 51.1-22.9 51.1-51.1v-49.2c0-28.2-22.9-51.1-51.1-51.1h40c28.2 0 51.1 22.8 51.1 51.1zM770.6 428.5v49.2c0 28.2-22.9 51.1-51.1 51.1h-40c28.2 0 51.1-22.9 51.1-51.1v-49.2c0-28.2-22.9-51.1-51.1-51.1h40c28.2 0 51.1 22.8 51.1 51.1z" fill="#FAD672" p-id="31085"></path><path d="M411.6 599v49.2c0 28.2-22.9 51.1-51.1 51.1h-40c28.2 0 51.1-22.9 51.1-51.1V599c0-28.2-22.9-51.1-51.1-51.1h40c28.2 0.1 51.1 22.9 51.1 51.1zM590.2 599v49.2c0 28.2-22.9 51.1-51.1 51.1h-40c28.2 0 51.1-22.9 51.1-51.1V599c0-28.2-22.9-51.1-51.1-51.1h40c28.2 0.1 51.1 22.9 51.1 51.1zM770.6 599v49.2c0 28.2-22.9 51.1-51.1 51.1h-40c28.2 0 51.1-22.9 51.1-51.1V599c0-28.2-22.9-51.1-51.1-51.1h40c28.2 0.1 51.1 22.9 51.1 51.1zM590.2 768.4v49.2c0 28.2-22.9 51.1-51.1 51.1h-40c28.2 0 51.1-22.9 51.1-51.1v-49.2c0-28.2-22.9-51.1-51.1-51.1h40c28.2 0.1 51.1 22.9 51.1 51.1z" fill="#45DABD" p-id="31086"></path><path d="M770.6 768.4v49.2c0 28.2-22.9 51.1-51.1 51.1h-40c28.2 0 51.1-22.9 51.1-51.1v-49.2c0-28.2-22.9-51.1-51.1-51.1h40c28.2 0.1 51.1 22.9 51.1 51.1z" fill="#FFACBE" p-id="31087"></path><path d="M842 132.4c-31.5-31.5-73.3-48.9-117.5-48.9h-425c-44.3 0-86 17.4-117.5 48.9s-48.9 73.3-48.9 117.5v524.2c0 44.3 17.4 86 48.9 117.5s73.3 48.9 117.5 48.9h425c44.2 0 86-17.4 117.5-48.9s48.9-73.2 48.9-117.4V249.9c0-44.3-17.4-86-48.9-117.5z m28.9 641.8c0 38.9-15.3 75.6-43.1 103.3-27.7 27.7-64.4 43-103.3 43h-425c-38.9 0-75.6-15.3-103.4-43-27.7-27.7-43-64.5-43-103.4V249.9c0-38.9 15.3-75.6 43-103.4s64.5-43 103.4-43h425c38.9 0 75.6 15.3 103.4 43 27.7 27.7 43 64.5 43 103.4v524.3z" fill="#00435B" p-id="31088"></path><path d="M704.1 148H319.9c-57.5 0-104.3 46.8-104.3 104.3v2.8c0 57.5 46.8 104.3 104.3 104.3h384.2c57.5 0 104.3-46.8 104.3-104.3v-2.8c0-57.5-46.8-104.3-104.3-104.3z m84.3 107.1c0 46.5-37.8 84.3-84.3 84.3H319.9c-46.5 0-84.3-37.8-84.3-84.3v-2.8c0-46.5 37.8-84.3 84.3-84.3h384.2c46.5 0 84.3 37.8 84.3 84.3v2.8zM304.5 528.8h56c28.2 0 51.1-22.9 51.1-51.1v-49.2c0-28.2-22.9-51.1-51.1-51.1h-56c-28.2 0-51.1 22.9-51.1 51.1v49.2c0 28.2 22.9 51.1 51.1 51.1z m-31.1-100.3c0-17.1 14-31.1 31.1-31.1h56c17.1 0 31.1 14 31.1 31.1v49.2c0 17.1-14 31.1-31.1 31.1h-56c-17.1 0-31.1-14-31.1-31.1v-49.2zM539.1 528.8c28.2 0 51.1-22.9 51.1-51.1v-49.2c0-28.2-22.9-51.1-51.1-51.1h-54.2c-28.2 0-51.1 22.9-51.1 51.1v49.2c0 28.2 22.9 51.1 51.1 51.1h54.2z m-85.3-51.1v-49.2c0-17.1 14-31.1 31.1-31.1h54.2c17.1 0 31.1 14 31.1 31.1v49.2c0 17.1-14 31.1-31.1 31.1h-54.2c-17.1 0-31.1-14-31.1-31.1zM719.5 377.4h-56c-28.2 0-51.1 22.9-51.1 51.1v49.2c0 28.2 22.9 51.1 51.1 51.1h56c28.2 0 51.1-22.9 51.1-51.1v-49.2c0-28.2-22.9-51.1-51.1-51.1z m31.1 100.3c0 17.1-14 31.1-31.1 31.1h-56c-17.1 0-31.1-14-31.1-31.1v-49.2c0-17.1 14-31.1 31.1-31.1h56c17.1 0 31.1 14 31.1 31.1v49.2zM253.4 648.3c0 28.2 22.9 51.1 51.1 51.1h56c28.2 0 51.1-22.9 51.1-51.1v-49.2c0-28.2-22.9-51.1-51.1-51.1h-56c-28.2 0-51.1 22.8-51.1 51v49.3z m20-49.3c0-17.1 14-31 31.1-31h56c17.1 0 31.1 14 31.1 31.1v49.2c0 17.1-14 31.1-31.1 31.1h-56c-17.1 0-31.1-14-31.1-31.1V599zM433.8 648.3c0 28.2 22.9 51.1 51.1 51.1h54.2c28.2 0 51.1-22.9 51.1-51.1v-49.2c0-28.2-22.9-51.1-51.1-51.1h-54.2c-28.2 0-51.1 22.8-51.1 51v49.3z m20-49.3c0-17.1 14-31 31.1-31h54.2c17.1 0 31.1 14 31.1 31.1v49.2c0 17.1-14 31.1-31.1 31.1h-54.2c-17.1 0-31.1-14-31.1-31.1V599zM719.5 547.9h-56c-28.2 0-51.1 22.9-51.1 51.1v49.2c0 28.2 22.9 51.1 51.1 51.1h56c28.2 0 51.1-22.9 51.1-51.1V599c0-28.2-22.9-51-51.1-51.1z m31.1 100.3c0 17.1-14 31.1-31.1 31.1h-56c-17.1 0-31.1-14-31.1-31.1V599c0-17.1 14-31.1 31.1-31.1h56c17.2 0.1 31.1 14 31.1 31.1v49.2zM539.1 717.3H304.5c-28.2 0-51.1 22.9-51.1 51.1v49.2c0 28.2 22.9 51.1 51.1 51.1h234.6c28.2 0 51.1-22.9 51.1-51.1v-49.2c0-28.2-22.9-51-51.1-51.1z m31.1 100.3c0 17.1-14 31.1-31.1 31.1H304.5c-17.1 0-31.1-14-31.1-31.1v-49.2c0-17.1 14-31.1 31.1-31.1H539c17.2 0.1 31.2 14 31.2 31.1v49.2zM719.5 717.3h-56c-28.2 0-51.1 22.9-51.1 51.1v49.2c0 28.2 22.9 51.1 51.1 51.1h56c28.2 0 51.1-22.9 51.1-51.1v-49.2c0-28.2-22.9-51-51.1-51.1z m31.1 100.3c0 17.1-14 31.1-31.1 31.1h-56c-17.1 0-31.1-14-31.1-31.1v-49.2c0-17.1 14-31.1 31.1-31.1h56c17.2 0.1 31.1 14 31.1 31.1v49.2z" fill="#00435B" p-id="31089"></path><path d="M340.8 304.8h-25.2v-83.2h-17.2l1.5-20.6h40.9v103.8zM387.5 284.2h50.2v19.3h-72.4V245l49.7-5-0.6-19.8h-47.5v-19.3h70.8l1.5 56.6-51.6 5.2-0.1 21.5zM533.6 304.8h-71.7V284h47.9v-22.7h-41v-20.8h41.1v-18.9h-47v-20.8h70.7v104z" fill="#F77490" p-id="31090"></path></svg>