<?xml version="1.0" standalone="no"?><!DOCTYPE svg PUBLIC "-//W3C//DTD SVG 1.1//EN" "http://www.w3.org/Graphics/SVG/1.1/DTD/svg11.dtd"><svg class="icon" width="200px" height="200.00px" viewBox="0 0 1024 1024" version="1.1" xmlns="http://www.w3.org/2000/svg"><path d="M934.4 496.085333a46.250667 46.250667 0 0 0-44.586667 35.157334H709.12v-305.066667a46.933333 46.933333 0 0 0-46.933333-46.890667H89.6a46.933333 46.933333 0 0 0-46.933333 46.933334v563.2a46.933333 46.933333 0 0 0 46.933333 46.933333h800.213333a46.293333 46.293333 0 0 0 44.586667 35.2 46.933333 46.933333 0 0 0 46.933333-46.933333v-281.6a46.933333 46.933333 0 0 0-46.933333-46.933334z" fill="#4F2AB5" /><path d="M938.666667 496.085333h-8.533334a42.069333 42.069333 0 0 0-41.173333 35.2H709.12v-305.066666a46.933333 46.933333 0 0 0-46.933333-46.933334H89.6a46.933333 46.933333 0 0 0-46.933333 46.933334v469.333333a46.933333 46.933333 0 0 0 46.933333 46.933333h799.36a42.069333 42.069333 0 0 0 41.173333 35.2h8.533334a42.666667 42.666667 0 0 0 42.666666-42.666666v-196.266667a42.666667 42.666667 0 0 0-42.666666-42.666667z" fill="#723FDB" /><path d="M823.466667 368.213333h-114.346667v-140.8h114.346667a64 64 0 0 1 64 64v12.8a64 64 0 0 1-64 64z" fill="#301196" /><path d="M89.6 207.402667h572.586667a18.773333 18.773333 0 0 1 18.773333 18.773333v469.376a18.773333 18.773333 0 0 1-18.773333 18.773333H89.6a18.773333 18.773333 0 0 1-18.773333-18.773333v-469.333333a18.773333 18.773333 0 0 1 18.773333-18.773334zM835.882667 556.885333a25.941333 25.941333 0 0 1 25.984 25.941334v108.117333a25.941333 25.941333 0 0 1-25.941334 25.941333 25.941333 25.941333 0 0 1-25.984-25.984V582.826667a25.941333 25.941333 0 0 1 25.941334-25.941334zM720.554667 690.773333v-107.818666a26.112 26.112 0 0 1 52.181333 0v107.818666a26.112 26.112 0 0 1-52.181333 0z" fill="#7750E2" /><path d="M117.76 226.218667m42.666667 0l196.266666 0q42.666667 0 42.666667 42.666666l0 384q0 42.666667-42.666667 42.666667l-196.266666 0q-42.666667 0-42.666667-42.666667l0-384q0-42.666667 42.666667-42.666666Z" fill="#723FDB" /><path d="M356.693333 695.552h-196.266666a42.666667 42.666667 0 0 1-42.666667-42.666667v-192h281.6v192a42.666667 42.666667 0 0 1-42.666667 42.666667z" fill="#4F2AB5" /><path d="M258.56 625.152a84.224 84.224 0 0 1-84.138667-84.096V380.757333a84.138667 84.138667 0 0 1 168.277334 0v160.298667a84.224 84.224 0 0 1-84.138667 84.096z" fill="#EDC35B" /><path d="M253.056 320.64h10.965333a54.613333 54.613333 0 0 1 54.613334 54.613333v171.264a54.613333 54.613333 0 0 1-54.613334 54.613334h-10.922666a54.613333 54.613333 0 0 1-54.613334-54.613334V375.210667a54.613333 54.613333 0 0 1 54.613334-54.613334z" fill="#4F2AB5" /><path d="M429.994667 226.218667m42.666666 0l8.533334 0q42.666667 0 42.666666 42.666666l0 102.4q0 42.666667-42.666666 42.666667l-8.533334 0q-42.666667 0-42.666666-42.666667l0-102.4q0-42.666667 42.666666-42.666666Z" fill="#4F2AB5" /><path d="M476.928 385.792a18.773333 18.773333 0 0 1-18.773333-18.773333v-93.866667a18.773333 18.773333 0 1 1 37.546666 0v93.866667a18.773333 18.773333 0 0 1-18.773333 18.773333z" fill="#6ED6AB" /><path d="M562.517333 330.538667h59.690667a11.818667 11.818667 0 0 1 11.818667 11.818666v59.733334a11.818667 11.818667 0 0 1-11.818667 11.861333h-59.733333a11.861333 11.861333 0 0 1-11.818667-11.861333V342.4a11.861333 11.861333 0 0 1 11.861333-11.861333z" fill="#4F2AB5" /><path d="M617.386667 372.266667a25.045333 25.045333 0 1 1-25.045334-25.045334 25.045333 25.045333 0 0 1 25.045334 25.045334z" fill="#D04C83" /><path d="M562.474667 227.413333h59.733333a11.818667 11.818667 0 0 1 11.818667 11.818667v59.733333a11.818667 11.818667 0 0 1-11.818667 11.818667h-59.733333a11.861333 11.861333 0 0 1-11.818667-11.861333V239.232a11.818667 11.818667 0 0 1 11.818667-11.818667z" fill="#4F2AB5" /><path d="M617.386667 269.098667a25.045333 25.045333 0 1 1-25.045334-25.045334 25.088 25.088 0 0 1 25.045334 25.045334z" fill="#EDC35B" /><path d="M318.677333 380.757333a60.117333 60.117333 0 1 1-60.16-60.16 60.117333 60.117333 0 0 1 60.16 60.16z" fill="#301196" /><path d="M429.994667 438.613333m21.333333 0l51.2 0q21.333333 0 21.333333 21.333334l0 4.266666q0 21.333333-21.333333 21.333334l-51.2 0q-21.333333 0-21.333333-21.333334l0-4.266666q0-21.333333 21.333333-21.333334Z" fill="#301196" /><path d="M540.16 438.613333m21.333333 0l51.2 0q21.333333 0 21.333334 21.333334l0 4.266666q0 21.333333-21.333334 21.333334l-51.2 0q-21.333333 0-21.333333-21.333334l0-4.266666q0-21.333333 21.333333-21.333334Z" fill="#301196" /></svg>