<?xml version="1.0" standalone="no"?><!DOCTYPE svg PUBLIC "-//W3C//DTD SVG 1.1//EN" "http://www.w3.org/Graphics/SVG/1.1/DTD/svg11.dtd"><svg class="icon" width="200px" height="200.00px" viewBox="0 0 1024 1024" version="1.1" xmlns="http://www.w3.org/2000/svg"><path d="M85.333333 385.365333m85.333334 0l682.666666 0q85.333333 0 85.333334 85.333334l0 340.010666q0 85.333333-85.333334 85.333334l-682.666666 0q-85.333333 0-85.333334-85.333334l0-340.010666q0-85.333333 85.333334-85.333334Z" fill="#A02D67" /><path d="M360.362667 385.365333v-1.408a64.085333 64.085333 0 0 1 64-64h290.816a74.154667 74.154667 0 1 0 0-148.266666h-150.357334a31.530667 31.530667 0 0 1-31.488-31.530667 21.333333 21.333333 0 1 0-42.666666 0 74.24 74.24 0 0 0 74.154666 74.197333h150.357334a31.488 31.488 0 1 1 0 62.933334H424.362667a106.794667 106.794667 0 0 0-106.666667 106.666666v1.408z" fill="#4F2AB5" /><path d="M85.333333 384m85.333334 0l682.666666 0q85.333333 0 85.333334 85.333333l0 256q0 85.333333-85.333334 85.333334l-682.666666 0q-85.333333 0-85.333334-85.333334l0-256q0-85.333333 85.333334-85.333333Z" fill="#D04C83" /><path d="M170.666667 409.6h682.666666a59.733333 59.733333 0 0 1 59.733334 59.733333v256a59.733333 59.733333 0 0 1-59.733334 59.733334H170.666667A59.733333 59.733333 0 0 1 110.933333 725.333333v-256A59.733333 59.733333 0 0 1 170.666667 409.6z" fill="#D86097" /><path d="M775.68 666.154667h60.586667a17.066667 17.066667 0 0 1 17.066666 17.066666v60.544a17.066667 17.066667 0 0 1-17.066666 17.066667h-60.586667a17.066667 17.066667 0 0 1-17.066667-17.066667v-60.544a17.066667 17.066667 0 0 1 17.066667-17.066666z" fill="#4F2AB5" /><path d="M841.514667 713.514667a35.498667 35.498667 0 1 1-35.541334-35.541334 35.541333 35.541333 0 0 1 35.498667 35.541334z" fill="#EDC35B" /><path d="M657.322667 666.154667h60.586666a17.066667 17.066667 0 0 1 17.066667 17.066666v60.544a17.066667 17.066667 0 0 1-17.109333 17.066667h-60.586667a17.066667 17.066667 0 0 1-17.066667-17.066667v-60.544a17.066667 17.066667 0 0 1 17.109334-17.066666zM408.746667 666.154667h179.157333a17.066667 17.066667 0 0 1 17.066667 17.066666v60.544a17.066667 17.066667 0 0 1-17.066667 17.066667h-179.2a17.066667 17.066667 0 0 1-17.066667-17.066667v-60.544a17.066667 17.066667 0 0 1 17.066667-17.066666z" fill="#4F2AB5" /><path d="M723.114667 713.514667a35.541333 35.541333 0 1 1-35.498667-35.541334 35.541333 35.541333 0 0 1 35.498667 35.541334z" fill="#6ED6AB" /><path d="M256.298667 768a51.328 51.328 0 0 1-51.285334-51.2v-8.704h-8.661333a51.285333 51.285333 0 1 1 0-102.528h8.661333v-8.661333a51.285333 51.285333 0 0 1 102.570667 0v8.661333h8.618667a51.285333 51.285333 0 1 1 0 102.528H307.626667v8.661333A51.328 51.328 0 0 1 256.298667 768z" fill="#4F2AB5" /><path d="M316.202667 631.125333H282.026667v-34.218666a25.685333 25.685333 0 0 0-51.370667 0v34.218666h-34.261333a25.685333 25.685333 0 1 0 0 51.370667h34.261333v34.261333a25.685333 25.685333 0 0 0 51.370667 0v-34.261333h34.218666a25.685333 25.685333 0 0 0 0-51.370667z" fill="#EDC35B" /><path d="M469.589333 734.848h-42.666666a21.333333 21.333333 0 0 1 0-42.666667h42.666666a21.333333 21.333333 0 0 1 0 42.666667zM569.728 734.848h-42.666667a21.333333 21.333333 0 1 1 0-42.666667h42.666667a21.333333 21.333333 0 0 1 0 42.666667z" fill="#301196" /><path d="M391.637333 469.333333m10.965334 0l191.402666 0q10.965333 0 10.965334 10.965334l0 28.672q0 10.965333-10.965334 10.965333l-191.402666 0q-10.965333 0-10.965334-10.965333l0-28.672q0-10.965333 10.965334-10.965334Z" fill="#D04C83" /><path d="M402.56 534.528h191.488a10.922667 10.922667 0 0 1 10.922667 10.922667v28.714666a10.922667 10.922667 0 0 1-10.922667 10.922667H402.56a10.922667 10.922667 0 0 1-10.922667-10.922667v-28.714666a10.922667 10.922667 0 0 1 10.922667-10.922667zM402.645333 601.770667h191.317334a11.008 11.008 0 0 1 11.008 11.008v28.544a11.050667 11.050667 0 0 1-11.050667 11.008H402.688a11.050667 11.050667 0 0 1-11.050667-11.008v-28.586667a11.008 11.008 0 0 1 11.008-10.965333z" fill="#D04C83" /></svg>