<?xml version="1.0" standalone="no"?><!DOCTYPE svg PUBLIC "-//W3C//DTD SVG 1.1//EN" "http://www.w3.org/Graphics/SVG/1.1/DTD/svg11.dtd"><svg class="icon" width="200px" height="200.00px" viewBox="0 0 1024 1024" version="1.1" xmlns="http://www.w3.org/2000/svg"><path d="M839.68 639.658667a21.333333 21.333333 0 0 1-21.333333-21.333334V456.106667a306.773333 306.773333 0 1 0-613.546667 0v162.218666a21.333333 21.333333 0 0 1-42.666667 0V456.106667a349.44 349.44 0 1 1 698.88 0v162.218666a21.333333 21.333333 0 0 1-21.333333 21.333334z" fill="#D04C83" /><path d="M679.424 936.874667H512a21.333333 21.333333 0 0 1 0-42.666667h167.424a89.685333 89.685333 0 0 0 89.6-89.6 21.333333 21.333333 0 0 1 42.666667 0 132.394667 132.394667 0 0 1-132.266667 132.266667z" fill="#6ED6AB" /><path d="M732.245333 256a42.453333 42.453333 0 0 1-28.714666-11.093333 285.44 285.44 0 0 0-384 0 42.666667 42.666667 0 1 1-57.386667-63.146667 370.730667 370.730667 0 0 1 498.858667 0A42.666667 42.666667 0 0 1 732.245333 256z" fill="#4F2AB5" /><path d="M192 727.296a106.666667 106.666667 0 0 0 106.666667-106.666667v-46.592a106.666667 106.666667 0 0 0-213.333334 0v46.592a106.666667 106.666667 0 0 0 106.666667 106.666667z" fill="#EDC35B" /><path d="M234.666667 810.666667A106.666667 106.666667 0 0 0 341.333333 704v-128a106.666667 106.666667 0 1 0-213.333333 0v128A106.666667 106.666667 0 0 0 234.666667 810.666667z" fill="#A02D67" /><path d="M831.146667 727.296a106.666667 106.666667 0 0 0 106.666666-106.666667v-46.592a106.666667 106.666667 0 1 0-213.333333 0v46.592a106.666667 106.666667 0 0 0 106.666667 106.666667z" fill="#EDC35B" /><path d="M234.666667 768A106.666667 106.666667 0 0 0 341.333333 661.333333v-128a106.666667 106.666667 0 0 0-213.333333 0v128A106.666667 106.666667 0 0 0 234.666667 768z" fill="#D04C83" /><path d="M234.666667 742.4a81.152 81.152 0 0 1-81.066667-81.066667v-128a81.066667 81.066667 0 1 1 162.133333 0v128a81.152 81.152 0 0 1-81.066666 81.066667z" fill="#D86097" /><path d="M790.357333 810.666667a106.666667 106.666667 0 0 0 106.666667-106.666667v-128a106.666667 106.666667 0 1 0-213.333333 0v128a106.666667 106.666667 0 0 0 106.666666 106.666667z" fill="#A02D67" /><path d="M790.357333 768a106.666667 106.666667 0 0 0 106.666667-106.666667v-128a106.666667 106.666667 0 0 0-213.333333 0v128a106.666667 106.666667 0 0 0 106.666666 106.666667z" fill="#D04C83" /><path d="M790.357333 742.4a81.152 81.152 0 0 1-81.066666-81.066667v-128a81.066667 81.066667 0 1 1 162.133333 0v128a81.152 81.152 0 0 1-81.066667 81.066667z" fill="#D86097" /></svg>