<?xml version="1.0" standalone="no"?><!DOCTYPE svg PUBLIC "-//W3C//DTD SVG 1.1//EN" "http://www.w3.org/Graphics/SVG/1.1/DTD/svg11.dtd"><svg class="icon" width="200px" height="200.00px" viewBox="0 0 1024 1024" version="1.1" xmlns="http://www.w3.org/2000/svg"><path d="M512 85.333333a426.666667 426.666667 0 1 0 426.666667 426.666667A426.666667 426.666667 0 0 0 512 85.333333z m0 490.666667a64 64 0 1 1 64-64 64 64 0 0 1-64 64z" fill="#D86097" /><path d="M107.946667 375.722667l343.893333 115.2a63.658667 63.658667 0 0 1 40.021333-39.381334L377.130667 107.434667A427.349333 427.349333 0 0 0 107.946667 375.722667zM916.608 646.698667l-343.936-115.285334a63.658667 63.658667 0 0 1-40.533333 41.002667l114.730666 344.149333a427.349333 427.349333 0 0 0 269.738667-269.866666z" fill="#D04C83" /><path d="M512 438.784A73.173333 73.173333 0 1 0 585.216 512 73.216 73.216 0 0 0 512 438.784z m0 131.84A58.624 58.624 0 1 1 570.581333 512 58.581333 58.581333 0 0 1 512 570.581333z" fill="#301196" /><path d="M512 298.666667a213.333333 213.333333 0 1 0 213.333333 213.333333 213.333333 213.333333 0 0 0-213.333333-213.333333z m0 284.416A71.125333 71.125333 0 1 1 583.082667 512 71.082667 71.082667 0 0 1 512 583.082667z" fill="#A02D67" /><path d="M512 341.333333a170.666667 170.666667 0 1 0 170.666667 170.666667 170.666667 170.666667 0 0 0-170.666667-170.666667z m0 241.749334A71.125333 71.125333 0 1 1 583.082667 512 71.082667 71.082667 0 0 1 512 583.082667z" fill="#EDC35B" /></svg>