<?xml version="1.0" standalone="no"?><!DOCTYPE svg PUBLIC "-//W3C//DTD SVG 1.1//EN" "http://www.w3.org/Graphics/SVG/1.1/DTD/svg11.dtd"><svg class="icon" width="200px" height="200.00px" viewBox="0 0 1024 1024" version="1.1" xmlns="http://www.w3.org/2000/svg"><path d="M925.44 498.773333A413.44 413.44 0 1 1 512 85.333333a413.44 413.44 0 0 1 413.44 413.44z" fill="#723FDB" /><path d="M512 886.613333a387.84 387.84 0 1 1 387.84-387.84A388.266667 388.266667 0 0 1 512 886.613333z" fill="#7750E2" /><path d="M608 312.576a89.6 89.6 0 1 1 89.642667-89.6 89.685333 89.685333 0 0 1-89.6 89.6z" fill="#4F2AB5" /><path d="M672.042667 222.976a64 64 0 1 1-64-64.042667 64 64 0 0 1 64 64.042667z" fill="#D04C83" /><path d="M480 441.472a89.6 89.6 0 1 1 89.6-89.6 89.685333 89.685333 0 0 1-89.6 89.6z" fill="#4F2AB5" /><path d="M544 351.872a64 64 0 1 1-64-64 64 64 0 0 1 64 64z" fill="#6ED6AB" /><path d="M646.314667 494.933333a89.6 89.6 0 1 1 89.6-89.6 89.685333 89.685333 0 0 1-89.6 89.6z" fill="#4F2AB5" /><path d="M710.314667 405.333333a64 64 0 1 1-64-64 64 64 0 0 1 64 64z" fill="#EDC35B" /></svg>