<?xml version="1.0" standalone="no"?><!DOCTYPE svg PUBLIC "-//W3C//DTD SVG 1.1//EN" "http://www.w3.org/Graphics/SVG/1.1/DTD/svg11.dtd"><svg class="icon" width="200px" height="200.00px" viewBox="0 0 1024 1024" version="1.1" xmlns="http://www.w3.org/2000/svg"><path d="M256 85.333333m42.666667 0l426.666666 0q42.666667 0 42.666667 42.666667l0 768q0 42.666667-42.666667 42.666667l-426.666666 0q-42.666667 0-42.666667-42.666667l0-768q0-42.666667 42.666667-42.666667Z" fill="#4F2AB5" /><path d="M256 85.333333m42.666667 0l426.666666 0q42.666667 0 42.666667 42.666667l0 725.333333q0 42.666667-42.666667 42.666667l-426.666666 0q-42.666667 0-42.666667-42.666667l0-725.333333q0-42.666667 42.666667-42.666667Z" fill="#723FDB" /><path d="M298.666667 110.933333h426.666666a17.066667 17.066667 0 0 1 17.066667 17.066667v725.333333a17.066667 17.066667 0 0 1-17.066667 17.066667H298.666667a17.066667 17.066667 0 0 1-17.066667-17.066667V128a17.066667 17.066667 0 0 1 17.066667-17.066667z" fill="#7750E2" /><path d="M307.2 136.490667h409.6v708.352H307.2z" fill="#4F2AB5" /><path d="M307.2 597.973333h409.6v246.869334H307.2z" fill="#301196" /><path d="M404.565333 765.482667h214.314667a8.533333 8.533333 0 0 1 8.533333 8.533333v53.76a8.533333 8.533333 0 0 1-8.533333 8.533333H404.48a8.533333 8.533333 0 0 1-8.533333-8.533333v-53.76a8.533333 8.533333 0 0 1 8.533333-8.533333z" fill="#D04C83" /><path d="M315.733333 606.506667m8.533334 0l53.76 0q8.533333 0 8.533333 8.533333l0 53.76q0 8.533333-8.533333 8.533333l-53.76 0q-8.533333 0-8.533334-8.533333l0-53.76q0-8.533333 8.533334-8.533333Z" fill="#7750E2" /><path d="M396.032 606.506667m8.533333 0l53.76 0q8.533333 0 8.533334 8.533333l0 53.76q0 8.533333-8.533334 8.533333l-53.76 0q-8.533333 0-8.533333-8.533333l0-53.76q0-8.533333 8.533333-8.533333Z" fill="#7750E2" /><path d="M476.288 606.506667m8.533333 0l53.76 0q8.533333 0 8.533334 8.533333l0 53.76q0 8.533333-8.533334 8.533333l-53.76 0q-8.533333 0-8.533333-8.533333l0-53.76q0-8.533333 8.533333-8.533333Z" fill="#7750E2" /><path d="M556.544 606.506667m8.533333 0l53.76 0q8.533333 0 8.533334 8.533333l0 53.76q0 8.533333-8.533334 8.533333l-53.76 0q-8.533333 0-8.533333-8.533333l0-53.76q0-8.533333 8.533333-8.533333Z" fill="#7750E2" /><path d="M636.842667 606.506667m8.533333 0l53.76 0q8.533333 0 8.533333 8.533333l0 53.76q0 8.533333-8.533333 8.533333l-53.76 0q-8.533333 0-8.533333-8.533333l0-53.76q0-8.533333 8.533333-8.533333Z" fill="#7750E2" /><path d="M315.733333 685.994667m8.533334 0l53.76 0q8.533333 0 8.533333 8.533333l0 53.76q0 8.533333-8.533333 8.533333l-53.76 0q-8.533333 0-8.533334-8.533333l0-53.76q0-8.533333 8.533334-8.533333Z" fill="#7750E2" /><path d="M396.032 685.994667m8.533333 0l53.76 0q8.533333 0 8.533334 8.533333l0 53.76q0 8.533333-8.533334 8.533333l-53.76 0q-8.533333 0-8.533333-8.533333l0-53.76q0-8.533333 8.533333-8.533333Z" fill="#7750E2" /><path d="M476.288 685.994667m8.533333 0l53.76 0q8.533333 0 8.533334 8.533333l0 53.76q0 8.533333-8.533334 8.533333l-53.76 0q-8.533333 0-8.533333-8.533333l0-53.76q0-8.533333 8.533333-8.533333Z" fill="#7750E2" /><path d="M556.544 685.994667m8.533333 0l53.76 0q8.533333 0 8.533334 8.533333l0 53.76q0 8.533333-8.533334 8.533333l-53.76 0q-8.533333 0-8.533333-8.533333l0-53.76q0-8.533333 8.533333-8.533333Z" fill="#7750E2" /><path d="M636.842667 685.994667m8.533333 0l53.76 0q8.533333 0 8.533333 8.533333l0 53.76q0 8.533333-8.533333 8.533333l-53.76 0q-8.533333 0-8.533333-8.533333l0-53.76q0-8.533333 8.533333-8.533333Z" fill="#7750E2" /><path d="M324.266667 765.482667h53.802666a8.533333 8.533333 0 0 1 8.533334 8.533333v53.76a8.533333 8.533333 0 0 1-8.533334 8.533333H324.266667a8.533333 8.533333 0 0 1-8.533334-8.533333v-53.76a8.533333 8.533333 0 0 1 8.533334-8.533333zM645.376 765.482667h53.76a8.533333 8.533333 0 0 1 8.533333 8.533333v53.76a8.533333 8.533333 0 0 1-8.533333 8.533333h-53.802667a8.533333 8.533333 0 0 1-8.533333-8.533333v-53.76a8.533333 8.533333 0 0 1 8.533333-8.533333z" fill="#7750E2" /><path d="M647.509333 336.64h-140.373333a40.32 40.32 0 0 1 0-80.64h140.373333a40.32 40.32 0 1 1 0 80.64z" fill="#EDC35B" /><path d="M516.266667 467.456H375.893333a40.32 40.32 0 0 1 0-80.64h140.373334a40.32 40.32 0 0 1 0 80.64z" fill="#6ED6AB" /></svg>