<?xml version="1.0" standalone="no"?><!DOCTYPE svg PUBLIC "-//W3C//DTD SVG 1.1//EN" "http://www.w3.org/Graphics/SVG/1.1/DTD/svg11.dtd"><svg class="icon" width="200px" height="200.00px" viewBox="0 0 1024 1024" version="1.1" xmlns="http://www.w3.org/2000/svg"><path d="M297.898667 171.52m85.333333 0l256 0q85.333333 0 85.333333 85.333333l0 597.333334q0 85.333333-85.333333 85.333333l-256 0q-85.333333 0-85.333333-85.333333l0-597.333334q0-85.333333 85.333333-85.333333Z" fill="#A02D67" /><path d="M297.898667 171.52m85.333333 0l256 0q85.333333 0 85.333333 85.333333l0 554.666667q0 85.333333-85.333333 85.333333l-256 0q-85.333333 0-85.333333-85.333333l0-554.666667q0-85.333333 85.333333-85.333333Z" fill="#D04C83" /><path d="M533.333333 171.52V85.333333a21.333333 21.333333 0 1 0-42.666666 0v86.186667z" fill="#4F2AB5" /><path d="M383.232 871.253333a59.818667 59.818667 0 0 1-59.733333-59.733333v-554.666667a59.818667 59.818667 0 0 1 59.733333-59.733333h256a59.818667 59.818667 0 0 1 59.733333 59.733333v554.666667a59.818667 59.818667 0 0 1-59.733333 59.733333z" fill="#D86097" /><path d="M349.098667 329.472V256.853333a34.133333 34.133333 0 0 1 34.133333-34.133333h256a34.133333 34.133333 0 0 1 34.133333 34.133333v145.066667a34.133333 34.133333 0 0 1-34.133333 34.133333h-256a34.133333 34.133333 0 0 1-34.133333-34.133333z" fill="#D04C83" /><path d="M396.544 273.408m-18.645333 0a18.645333 18.645333 0 1 0 37.290666 0 18.645333 18.645333 0 1 0-37.290666 0Z" fill="#A02D67" /><path d="M454.272 273.408m-18.645333 0a18.645333 18.645333 0 1 0 37.290666 0 18.645333 18.645333 0 1 0-37.290666 0Z" fill="#A02D67" /><path d="M530.645333 273.408A18.645333 18.645333 0 1 1 512 254.805333a18.645333 18.645333 0 0 1 18.645333 18.602667z" fill="#A02D67" /><path d="M569.728 273.408m-18.645333 0a18.645333 18.645333 0 1 0 37.290666 0 18.645333 18.645333 0 1 0-37.290666 0Z" fill="#A02D67" /><path d="M627.456 273.408m-18.645333 0a18.645333 18.645333 0 1 0 37.290666 0 18.645333 18.645333 0 1 0-37.290666 0Z" fill="#A02D67" /><path d="M396.544 331.093333m-18.645333 0a18.645333 18.645333 0 1 0 37.290666 0 18.645333 18.645333 0 1 0-37.290666 0Z" fill="#A02D67" /><path d="M454.272 331.093333m-18.645333 0a18.645333 18.645333 0 1 0 37.290666 0 18.645333 18.645333 0 1 0-37.290666 0Z" fill="#A02D67" /><path d="M530.645333 331.093333A18.645333 18.645333 0 1 1 512 312.448a18.645333 18.645333 0 0 1 18.645333 18.645333z" fill="#A02D67" /><path d="M569.728 331.093333m-18.645333 0a18.645333 18.645333 0 1 0 37.290666 0 18.645333 18.645333 0 1 0-37.290666 0Z" fill="#A02D67" /><path d="M627.456 331.093333m-18.645333 0a18.645333 18.645333 0 1 0 37.290666 0 18.645333 18.645333 0 1 0-37.290666 0Z" fill="#A02D67" /><path d="M396.544 388.736m-18.645333 0a18.645333 18.645333 0 1 0 37.290666 0 18.645333 18.645333 0 1 0-37.290666 0Z" fill="#A02D67" /><path d="M454.272 388.736m-18.645333 0a18.645333 18.645333 0 1 0 37.290666 0 18.645333 18.645333 0 1 0-37.290666 0Z" fill="#A02D67" /><path d="M530.645333 388.736A18.645333 18.645333 0 1 1 512 370.133333a18.645333 18.645333 0 0 1 18.645333 18.602667z" fill="#A02D67" /><path d="M569.728 388.736m-18.645333 0a18.645333 18.645333 0 1 0 37.290666 0 18.645333 18.645333 0 1 0-37.290666 0Z" fill="#A02D67" /><path d="M627.456 388.736m-18.645333 0a18.645333 18.645333 0 1 0 37.290666 0 18.645333 18.645333 0 1 0-37.290666 0Z" fill="#A02D67" /><path d="M374.698667 454.912h273.066666a25.6 25.6 0 0 1 25.6 25.6v28.501333a25.6 25.6 0 0 1-25.6 25.6h-273.066666a25.6 25.6 0 0 1-25.6-25.6v-28.501333a25.6 25.6 0 0 1 25.6-25.6z" fill="#A02D67" /><path d="M374.741333 482.048h273.024a17.066667 17.066667 0 0 1 17.066667 17.066667v9.856a17.066667 17.066667 0 0 1-17.066667 17.066666h-273.066666a17.066667 17.066667 0 0 1-17.066667-17.066666v-9.813334a17.066667 17.066667 0 0 1 17.066667-17.109333z" fill="#EDC35B" /><path d="M362.496 469.162667a7.765333 7.765333 0 0 1 7.765333-7.765334h72.277334a7.765333 7.765333 0 0 1 0.042666 15.573334H370.261333a7.808 7.808 0 0 1-7.765333-7.808z" fill="#6ED6AB" /><path d="M469.76 469.162667a7.722667 7.722667 0 0 1 7.68-7.765334h72.362667a7.765333 7.765333 0 1 1 0 15.573334h-72.32a7.808 7.808 0 0 1-7.765334-7.808z" fill="#D86097" /><path d="M576.938667 469.162667a7.765333 7.765333 0 0 1 7.765333-7.765334h72.32a7.765333 7.765333 0 0 1 0 15.573334h-72.32a7.808 7.808 0 0 1-7.765333-7.808z" fill="#EDC35B" /><path d="M374.741333 553.472h41.813334a25.6 25.6 0 0 1 25.642666 25.6v28.501333a25.6 25.6 0 0 1-25.6 25.6h-41.898666a25.6 25.6 0 0 1-25.6-25.6v-28.501333a25.6 25.6 0 0 1 25.6-25.6zM490.282667 553.472h41.898666a25.6 25.6 0 0 1 25.6 25.6v28.501333a25.6 25.6 0 0 1-25.6 25.6h-41.898666a25.6 25.6 0 0 1-25.6-25.6v-28.501333a25.6 25.6 0 0 1 25.6-25.6zM605.866667 553.472h41.856a25.6 25.6 0 0 1 25.6 25.6v28.501333a25.6 25.6 0 0 1-25.557334 25.6h-41.941333a25.6 25.6 0 0 1-25.6-25.6v-28.501333a25.6 25.6 0 0 1 25.6-25.6zM374.741333 656.085333h41.856a25.6 25.6 0 0 1 25.6 25.6v28.501334a25.6 25.6 0 0 1-25.6 25.6h-41.898666a25.6 25.6 0 0 1-25.6-25.6v-28.501334a25.6 25.6 0 0 1 25.6-25.6zM490.282667 656.085333h41.898666a25.6 25.6 0 0 1 25.6 25.6v28.501334a25.6 25.6 0 0 1-25.6 25.6h-41.898666a25.6 25.6 0 0 1-25.6-25.6v-28.458667a25.6 25.6 0 0 1 25.6-25.642667zM605.866667 656.085333h41.898666a25.6 25.6 0 0 1 25.6 25.6v28.501334a25.6 25.6 0 0 1-25.6 25.6h-41.941333a25.6 25.6 0 0 1-25.6-25.6v-28.458667a25.6 25.6 0 0 1 25.6-25.642667zM374.698667 758.698667h41.898666a25.6 25.6 0 0 1 25.6 25.6v28.501333a25.6 25.6 0 0 1-25.6 25.6h-41.898666a25.6 25.6 0 0 1-25.6-25.6v-28.501333a25.6 25.6 0 0 1 25.6-25.6zM490.24 758.698667h41.984a25.6 25.6 0 0 1 25.6 25.6v28.501333a25.6 25.6 0 0 1-25.6 25.6h-41.941333a25.6 25.6 0 0 1-25.6-25.6v-28.501333a25.6 25.6 0 0 1 25.6-25.6zM605.824 758.698667h41.941333a25.6 25.6 0 0 1 25.6 25.6v28.458666a25.6 25.6 0 0 1-25.6 25.6h-41.941333a25.6 25.6 0 0 1-25.6-25.6v-28.458666a25.6 25.6 0 0 1 25.6-25.6z" fill="#4F2AB5" /></svg>