<svg xmlns="http://www.w3.org/2000/svg" xmlns:xlink="http://www.w3.org/1999/xlink" fill="none" version="1.1" width="68" height="24" viewBox="0 0 68 24"><g style="mix-blend-mode:passthrough"><g style="mix-blend-mode:passthrough"><g style="mix-blend-mode:passthrough"><path d="M0 4C2.452636981645965e-16 1.7908610006768262 1.7908610006768266 0 4 0L34 0C34 0 34 0 34 0L34 24C34 24 34 24 34 24L4 24C1.7908610006768266 24 0 22.209138999323173 0 20Z" fill="#3D8AFF" fill-opacity="1"/></g><g style="mix-blend-mode:passthrough"><g style="mix-blend-mode:passthrough"><path d="M15.492,5.5Q15.908000000000001,5.5,16.204,5.788Q16.5,6.076,16.5,6.492L16.5,10.492Q16.5,10.908000000000001,16.204,11.204Q15.908000000000001,11.5,15.492,11.5L11.492,11.5Q11.076,11.5,10.788,11.204Q10.5,10.908000000000001,10.5,10.492L10.5,6.492Q10.5,6.076,10.788,5.788Q11.076,5.5,11.492,5.5L15.492,5.5ZM22.508,5.5Q22.924,5.5,23.212,5.788Q23.5,6.076,23.5,6.492L23.5,10.492Q23.5,10.908000000000001,23.212,11.204Q22.924,11.5,22.508,11.5L18.508,11.5Q18.092,11.5,17.796,11.204Q17.5,10.908000000000001,17.5,10.492L17.5,6.492Q17.5,6.076,17.796,5.788Q18.092,5.5,18.508,5.5L22.508,5.5ZM15.492,12.5Q15.908000000000001,12.5,16.204,12.788Q16.5,13.076,16.5,13.492L16.5,17.492Q16.5,17.908,16.204,18.204Q15.908000000000001,18.5,15.492,18.5L11.492,18.5Q11.076,18.5,10.788,18.204Q10.5,17.908,10.5,17.492L10.5,13.492Q10.5,13.076,10.788,12.788Q11.076,12.5,11.492,12.5L15.492,12.5ZM22.508,12.5Q22.924,12.5,23.212,12.788Q23.5,13.076,23.5,13.492L23.5,17.492Q23.5,17.908,23.212,18.204Q22.924,18.5,22.508,18.5L18.508,18.5Q18.092,18.5,17.796,18.204Q17.5,17.908,17.5,17.492L17.5,13.492Q17.5,13.076,17.796,12.788Q18.092,12.5,18.508,12.5L22.508,12.5Z" fill-rule="evenodd" fill="#FFFFFF" fill-opacity="1"/></g></g></g><g style="mix-blend-mode:passthrough"><g style="mix-blend-mode:passthrough"><path d="M34 0C34 0 34 0 34 0L64 0C66.20913899932317 0 68 1.7908610006768266 68 4L68 20C68 22.209138999323173 66.20913899932317 24 64 24L34 24C34 24 34 24 34 24Z" fill="#373737" fill-opacity="1"/></g><g style="mix-blend-mode:passthrough"><g style="mix-blend-mode:passthrough"><path d="M44.5,7.25C44.5,7.80228,44.947715,8.25,45.5,8.25C46.05228,8.25,46.5,7.80228,46.5,7.25C46.5,6.697715,46.05228,6.25,45.5,6.25C44.947715,6.25,44.5,6.697715,44.5,7.25ZM47.5,6.5L57.5,6.5L57.5,8L47.5,8L47.5,6.5ZM44.5,12C44.5,12.55228,44.947715,13,45.5,13C46.05228,13,46.5,12.55228,46.5,12C46.5,11.44772,46.05228,11,45.5,11C44.947715,11,44.5,11.44772,44.5,12ZM47.5,11.25L57.5,11.25L57.5,12.75L47.5,12.75L47.5,11.25ZM44.5,16.75C44.5,17.302300000000002,44.947715,17.75,45.5,17.75C46.05228,17.75,46.5,17.302300000000002,46.5,16.75C46.5,16.19771,46.05228,15.75,45.5,15.75C44.947715,15.75,44.5,16.19771,44.5,16.75ZM57.5,16L47.5,16L47.5,17.5L57.5,17.5L57.5,16Z" fill-rule="evenodd" fill="#FFFFFF" fill-opacity="1"/></g></g></g></g></svg>