<?xml version="1.0" standalone="no"?><!DOCTYPE svg PUBLIC "-//W3C//DTD SVG 1.1//EN" "http://www.w3.org/Graphics/SVG/1.1/DTD/svg11.dtd"><svg class="icon" width="200px" height="200.00px" viewBox="0 0 1024 1024" version="1.1" xmlns="http://www.w3.org/2000/svg"><path d="M836.821333 895.744H170.666667a42.666667 42.666667 0 0 1-42.666667-42.666667V245.205333a42.666667 42.666667 0 0 1 12.501333-30.165333l73.856-73.898667a42.666667 42.666667 0 0 1 30.208-12.501333h592.256a42.666667 42.666667 0 0 1 42.666667 42.666667v681.813333a42.666667 42.666667 0 0 1-42.666667 42.666667z" fill="#4F2AB5" /><path d="M836.821333 879.488H170.666667a42.666667 42.666667 0 0 1-42.666667-42.666667V244.565333a42.666667 42.666667 0 0 1 12.501333-30.165333l73.856-73.941333A42.666667 42.666667 0 0 1 244.565333 128h592.256a42.666667 42.666667 0 0 1 42.666667 42.666667v666.154666a42.666667 42.666667 0 0 1-42.666667 42.666667z" fill="#723FDB" /><path d="M170.666667 853.888a17.066667 17.066667 0 0 1-17.066667-17.066667V244.565333a17.066667 17.066667 0 0 1 4.992-12.074666l73.856-73.941334a17.066667 17.066667 0 0 1 12.117333-4.949333h592.256a17.066667 17.066667 0 0 1 17.066667 17.066667v666.154666a17.066667 17.066667 0 0 1-17.066667 17.066667z" fill="#7750E2" /><path d="M512 512m-128 0a128 128 0 1 0 256 0 128 128 0 1 0-256 0Z" fill="#4F2AB5" /><path d="M512 512m-85.333333 0a85.333333 85.333333 0 1 0 170.666666 0 85.333333 85.333333 0 1 0-170.666666 0Z" fill="#6ED6AB" /><path d="M725.333333 341.333333h-256a42.666667 42.666667 0 0 1-42.666666-42.666666V128h341.333333v170.666667a42.666667 42.666667 0 0 1-42.666667 42.666666z" fill="#EDC35B" /><path d="M341.333333 170.666667h85.333334v128H341.333333zM554.666667 298.666667h-85.333334V170.666667h42.666667l42.666667 42.666666v85.333334z" fill="#4F2AB5" /><path d="M494.933333 273.109333V196.266667h6.442667l27.690667 27.648v49.194666h-34.133334z" fill="#D04C83" /><path d="M682.581333 725.888h-341.333333a42.666667 42.666667 0 0 0-42.666667 42.666667v110.933333h426.666667v-110.933333a42.666667 42.666667 0 0 0-42.666667-42.666667z" fill="#4F2AB5" /></svg>