<?xml version="1.0" standalone="no"?><!DOCTYPE svg PUBLIC "-//W3C//DTD SVG 1.1//EN" "http://www.w3.org/Graphics/SVG/1.1/DTD/svg11.dtd"><svg class="icon" width="200px" height="200.00px" viewBox="0 0 1024 1024" version="1.1" xmlns="http://www.w3.org/2000/svg"><path d="M85.333333 298.666667m42.666667 0l768 0q42.666667 0 42.666667 42.666666l0 512q0 42.666667-42.666667 42.666667l-768 0q-42.666667 0-42.666667-42.666667l0-512q0-42.666667 42.666667-42.666666Z" fill="#4F2AB5" /><path d="M85.333333 298.666667m42.666667 0l768 0q42.666667 0 42.666667 42.666666l0 426.666667q0 42.666667-42.666667 42.666667l-768 0q-42.666667 0-42.666667-42.666667l0-426.666667q0-42.666667 42.666667-42.666666Z" fill="#723FDB" /><path d="M192 298.666667V233.941333a64.085333 64.085333 0 0 1 64-64h512a64.085333 64.085333 0 0 1 64 64V298.666667h42.666667V233.941333a106.794667 106.794667 0 0 0-106.666667-106.666666H256a106.794667 106.794667 0 0 0-106.666667 106.666666V298.666667z" fill="#4F2AB5" /><path d="M420.906667 233.898667L651.093333 298.666667h157.568L432.426667 192.853333a21.333333 21.333333 0 1 0-11.52 41.088z" fill="#D04C83" /><path d="M128 324.266667h768a17.066667 17.066667 0 0 1 17.066667 17.066666v426.666667a17.066667 17.066667 0 0 1-17.066667 17.066667H128a17.066667 17.066667 0 0 1-17.066667-17.066667V341.333333a17.066667 17.066667 0 0 1 17.066667-17.066666z" fill="#7750E2" /><path d="M110.933333 512V341.333333a17.066667 17.066667 0 0 1 17.066667-17.066666h768a17.066667 17.066667 0 0 1 17.066667 17.066666v170.666667z" fill="#301196" /><path d="M110.933333 512V341.333333a17.066667 17.066667 0 0 1 17.066667-17.066666h622.933333V512z" fill="#4F2AB5" /><path d="M153.6 384h42.666667v128h-42.666667z" fill="#EDC35B" /><path d="M238.933333 426.666667h42.666667v85.333333h-42.666667zM324.266667 426.666667h42.666666v85.333333h-42.666666z" fill="#723FDB" /><path d="M409.6 426.666667h42.666667v85.333333h-42.666667z" fill="#EDC35B" /><path d="M494.933333 384h42.666667v128h-42.666667z" fill="#6ED6AB" /><path d="M580.266667 426.666667h42.666666v85.333333h-42.666666z" fill="#EDC35B" /><path d="M665.6 426.666667h42.666667v85.333333h-42.666667z" fill="#723FDB" /><path d="M234.666667 646.4m-106.666667 0a106.666667 106.666667 0 1 0 213.333333 0 106.666667 106.666667 0 1 0-213.333333 0Z" fill="#4F2AB5" /><path d="M384 539.733333m42.666667 0l170.666666 0q42.666667 0 42.666667 42.666667l0 128q0 42.666667-42.666667 42.666667l-170.666666 0q-42.666667 0-42.666667-42.666667l0-128q0-42.666667 42.666667-42.666667Z" fill="#4F2AB5" /><path d="M597.333333 753.066667h-170.666666a42.666667 42.666667 0 0 1-42.666667-42.666667v-64h256v64a42.666667 42.666667 0 0 1-42.666667 42.666667z" fill="#723FDB" /><path d="M789.333333 646.4m-106.666666 0a106.666667 106.666667 0 1 0 213.333333 0 106.666667 106.666667 0 1 0-213.333333 0Z" fill="#4F2AB5" /><path d="M833.322667 418.133333m-42.752 0a42.752 42.752 0 1 0 85.504 0 42.752 42.752 0 1 0-85.504 0Z" fill="#6ED6AB" /></svg>