<?xml version="1.0" standalone="no"?><!DOCTYPE svg PUBLIC "-//W3C//DTD SVG 1.1//EN" "http://www.w3.org/Graphics/SVG/1.1/DTD/svg11.dtd"><svg class="icon" width="200px" height="200.00px" viewBox="0 0 1024 1024" version="1.1" xmlns="http://www.w3.org/2000/svg"><path d="M85.333333 170.666667m42.666667 0l341.333333 0q42.666667 0 42.666667 42.666666l0 597.290667q0 42.666667-42.666667 42.666667l-341.333333 0q-42.666667 0-42.666667-42.666667l0-597.290667q0-42.666667 42.666667-42.666666Z" fill="#4F2AB5" /><path d="M85.333333 170.666667m42.666667 0l341.333333 0q42.666667 0 42.666667 42.666666l0 511.957334q0 42.666667-42.666667 42.666666l-341.333333 0q-42.666667 0-42.666667-42.666666l0-511.957334q0-42.666667 42.666667-42.666666Z" fill="#723FDB" /><path d="M128 196.266667h341.333333a17.066667 17.066667 0 0 1 17.066667 17.066666v512a17.066667 17.066667 0 0 1-17.066667 17.066667H128a17.066667 17.066667 0 0 1-17.066667-17.066667V213.333333a17.066667 17.066667 0 0 1 17.066667-17.066666z" fill="#7750E2" /><path d="M580.266667 214.698667h290.133333a68.266667 68.266667 0 0 1 68.266667 68.266666V743.68a68.266667 68.266667 0 0 1-68.266667 68.266667h-290.133333a68.266667 68.266667 0 0 1-68.266667-68.266667V282.88a68.266667 68.266667 0 0 1 68.266667-68.266667zM475.434667 692.224l-74.666667-91.306667 74.666667-91.349333 10.965333 13.397333v-60.586666l-11.008 13.397333-74.581333-91.306667 74.624-91.349333 10.965333 13.397333v-60.586666l-10.965333 13.397333L423.936 196.266667H396.373333l65.28 79.914666L386.986667 367.573333 312.448 276.224 377.728 196.266667h-27.562667L298.624 259.370667 247.125333 196.266667h-27.562666l65.28 79.957333-74.581334 91.306667-74.624-91.349334L200.96 196.266667h-27.562667L121.856 259.370667 110.933333 245.930667v60.458666l10.922667-13.354666L196.48 384.426667l-74.624 91.306666-10.922667-13.354666v60.586666l10.922667-13.397333 74.624 91.306667-74.666667 91.349333-10.88-13.312v46.378667l3.498667 9.813333 7.424-9.088 13.397333 16.384h27.562667l-27.178667-33.28 74.624-91.349333 74.581334 91.306666-27.178667 33.28h27.562667l13.397333-16.384 13.44 16.426667h27.562667l-27.178667-33.28 74.581333-91.349333 74.624 91.306666-27.178666 33.28h27.562666l13.397334-16.341333 7.466666 9.130667 3.498667-9.813334v-46.506666zM298.624 293.12l74.624 91.306667-74.624 91.306666-74.581333-91.306666z m-162.986667 199.552l74.624-91.349333 74.581334 91.349333-74.581334 91.306667zM298.666667 692.224l-74.581334-91.306667 74.581334-91.349333 74.624 91.306667z m13.824-199.552L386.986667 401.322667l74.624 91.349333-74.624 91.306667z" fill="#723FDB" /><path d="M537.6 240.256m42.666667 0l290.133333 0q42.666667 0 42.666667 42.666667l0 460.8q0 42.666667-42.666667 42.666666l-290.133333 0q-42.666667 0-42.666667-42.666666l0-460.8q0-42.666667 42.666667-42.666667Z" fill="#7750E2" /><path d="M597.205333 286.549333m42.666667 0l171.264 0q42.666667 0 42.666667 42.666667l0 370.517333q0 42.666667-42.666667 42.666667l-171.264 0q-42.666667 0-42.666667-42.666667l0-370.517333q0-42.666667 42.666667-42.666667Z" fill="#4F2AB5" /><path d="M811.136 753.066667h-171.264a53.376 53.376 0 0 1-53.333333-53.333334V329.216a53.376 53.376 0 0 1 53.333333-53.333333h171.264a53.376 53.376 0 0 1 53.333333 53.333333V699.733333a53.376 53.376 0 0 1-53.333333 53.333334zM639.872 297.216a32.042667 32.042667 0 0 0-32 32V699.733333a32.042667 32.042667 0 0 0 32 32h171.264a32.042667 32.042667 0 0 0 32-32V329.216a32.042667 32.042667 0 0 0-32-32z" fill="#301196" /><path d="M439.296 445.141333a80 80 0 0 0-76.373333-78.250666 75.904 75.904 0 0 0-65.024 37.504 73.216 73.216 0 0 0-63.530667-37.504 80 80 0 0 0-76.330667 78.250666 80.213333 80.213333 0 0 0 2.389334 29.696 127.445333 127.445333 0 0 0 39.082666 65.237334l77.44 70.229333a31.36 31.36 0 0 0 41.941334 0.213333l78.933333-70.442666a127.445333 127.445333 0 0 0 39.082667-65.237334 81.066667 81.066667 0 0 0 2.389333-29.696z" fill="#4F2AB5" /><path d="M537.941333 321.408l78.890667-78.848 78.848 78.848-78.848 78.848z" fill="#301196" /><path d="M298.026667 601.386667l-9.6-3.712-77.482667-70.229334a110.592 110.592 0 0 1-33.92-56.533333 66.432 66.432 0 0 1-2.133333-22.997333A63.872 63.872 0 0 1 234.325333 384a55.808 55.808 0 0 1 48.810667 29.056l14.549333 24.917333 14.848-24.789333a58.410667 58.410667 0 0 1 50.346667-29.184 63.36 63.36 0 0 1 59.392 62.72 65.621333 65.621333 0 0 1-2.048 24.234667 110.293333 110.293333 0 0 1-33.877333 56.490666l-78.890667 70.4z" fill="#D04C83" /><path d="M574.165333 321.408l42.666667-42.666667 42.666667 42.666667-42.666667 42.666667z" fill="#EDC35B" /><path d="M755.285333 707.498667l78.890667-78.848 78.848 78.848-78.848 78.890666z" fill="#301196" /><path d="M791.466667 707.498667l42.666666-42.666667 42.666667 42.666667-42.666667 42.666666z" fill="#6ED6AB" /><path d="M682.837333 390.784l42.666667-42.666667 42.666667 42.666667-42.666667 42.666667zM682.837333 513.28l42.666667-42.666667 42.666667 42.666667-42.666667 42.666667zM682.837333 635.861333l42.666667-42.666666 42.666667 42.666666-42.666667 42.666667z" fill="#7750E2" /></svg>