<?xml version="1.0" standalone="no"?><!DOCTYPE svg PUBLIC "-//W3C//DTD SVG 1.1//EN" "http://www.w3.org/Graphics/SVG/1.1/DTD/svg11.dtd"><svg class="icon" width="200px" height="200.00px" viewBox="0 0 1024 1024" version="1.1" xmlns="http://www.w3.org/2000/svg"><path d="M85.333333 621.098667v-394.666667A56.405333 56.405333 0 0 1 141.653333 170.069333H256v56.32H164.437333a22.528 22.528 0 0 0-22.528 22.613334v372.053333zM938.666667 621.141333V226.432a56.405333 56.405333 0 0 0-56.32-56.405333H768v56.32h91.52a22.613333 22.613333 0 0 1 22.613333 22.613333v372.181333z" fill="#D04C83" /><path d="M853.333333 469.333333H170.666667a85.333333 85.333333 0 0 0-85.333334 85.333334v213.333333a85.333333 85.333333 0 0 0 85.333334 85.333333h180.650666a85.333333 85.333333 0 0 0 84.693334-74.752l4.778666-38.272a17.066667 17.066667 0 0 1 16.896-14.933333h108.586667a17.066667 17.066667 0 0 1 16.938667 14.933333l4.821333 38.272A85.333333 85.333333 0 0 0 672.682667 853.333333H853.333333a85.333333 85.333333 0 0 0 85.333334-85.333333v-213.333333a85.333333 85.333333 0 0 0-85.333334-85.333334z" fill="#4F2AB5" /><path d="M683.818667 469.333333H170.624a85.333333 85.333333 0 0 0-85.333333 85.333334v170.666666a85.333333 85.333333 0 0 0 85.333333 85.333334h180.693333a85.333333 85.333333 0 0 0 84.693334-74.752l4.778666-38.272a17.066667 17.066667 0 0 1 16.896-14.933334h108.586667a17.066667 17.066667 0 0 1 16.938667 14.933334l4.821333 38.272A85.333333 85.333333 0 0 0 672.682667 810.666667H853.333333a85.333333 85.333333 0 0 0 85.333334-85.333334v-170.666666a85.333333 85.333333 0 0 0-85.333334-85.333334z" fill="#723FDB" /><path d="M672.682667 785.066667a59.733333 59.733333 0 0 1-59.306667-52.266667l-4.778667-38.314667a42.666667 42.666667 0 0 0-42.325333-37.376h-108.586667a42.666667 42.666667 0 0 0-42.325333 37.418667l-4.778667 38.229333a59.733333 59.733333 0 0 1-59.264 52.352H170.666667A59.733333 59.733333 0 0 1 110.933333 725.333333v-170.666666A59.733333 59.733333 0 0 1 170.666667 494.933333H853.333333a59.733333 59.733333 0 0 1 59.733334 59.733334v170.666666a59.904 59.904 0 0 1-59.733334 59.733334z" fill="#7750E2" /><path d="M171.264 759.509333a34.176 34.176 0 0 1-34.133333-34.133333v-170.666667a34.176 34.176 0 0 1 34.133333-34.218666h201.984a34.176 34.176 0 0 1 33.877333 38.4l-21.333333 170.666666a34.218667 34.218667 0 0 1-33.877333 29.952z" fill="#4F2AB5" /><path d="M171.264 733.909333a8.533333 8.533333 0 0 1-8.533333-8.533333v-170.666667a8.533333 8.533333 0 0 1 8.533333-8.618666h201.984l6.4 2.901333 2.133333 6.784-21.333333 170.666667a8.704 8.704 0 0 1-8.533333 7.466666z" fill="#6ED6AB" /><path d="M853.76 759.509333a34.176 34.176 0 0 0 34.133333-34.133333v-170.666667a34.176 34.176 0 0 0-34.133333-34.218666h-201.984a34.176 34.176 0 0 0-33.877333 38.4l21.333333 170.666666a34.218667 34.218667 0 0 0 33.877333 29.952z" fill="#4F2AB5" /><path d="M673.109333 733.909333a8.704 8.704 0 0 1-8.490666-7.509333l-21.333334-170.666667 2.133334-6.741333 6.4-2.901333h201.984a8.533333 8.533333 0 0 1 8.533333 8.576v170.666666a8.533333 8.533333 0 0 1-8.533333 8.576z" fill="#EDC35B" /></svg>