<?xml version="1.0" standalone="no"?><!DOCTYPE svg PUBLIC "-//W3C//DTD SVG 1.1//EN" "http://www.w3.org/Graphics/SVG/1.1/DTD/svg11.dtd"><svg class="icon" width="200px" height="200.00px" viewBox="0 0 1024 1024" version="1.1" xmlns="http://www.w3.org/2000/svg"><path d="M512 938.666667a170.666667 170.666667 0 0 1-170.666667-170.666667V256a170.666667 170.666667 0 0 1 341.333334 0v512a170.666667 170.666667 0 0 1-170.666667 170.666667z" fill="#A02D67" /><path d="M512 898.048a170.666667 170.666667 0 0 1-170.666667-170.666667V256a170.666667 170.666667 0 0 1 341.333334 0v471.381333a170.666667 170.666667 0 0 1-170.666667 170.666667z" fill="#D04C83" /><path d="M512 872.448a145.237333 145.237333 0 0 1-145.066667-145.066667V256a145.066667 145.066667 0 1 1 290.133334 0v471.381333a145.237333 145.237333 0 0 1-145.066667 145.066667z" fill="#D86097" /><path d="M454.570667 291.413333a53.077333 53.077333 0 1 1 53.077333-53.12 53.162667 53.162667 0 0 1-53.077333 53.077334zM569.429333 291.413333a53.077333 53.077333 0 1 1 53.077334-53.12 53.162667 53.162667 0 0 1-53.077334 53.077334z" fill="#4F2AB5" /><path d="M454.570667 377.429333a53.077333 53.077333 0 1 1 53.077333-53.077333 53.162667 53.162667 0 0 1-53.077333 53.077333zM569.429333 377.429333a53.077333 53.077333 0 1 1 53.077334-53.077333 53.162667 53.162667 0 0 1-53.077334 53.077333z" fill="#4F2AB5" /><path d="M454.570667 238.293333m-28.714667 0a28.714667 28.714667 0 1 0 57.429333 0 28.714667 28.714667 0 1 0-57.429333 0Z" fill="#6ED6AB" /><path d="M569.429333 238.293333m-28.714666 0a28.714667 28.714667 0 1 0 57.429333 0 28.714667 28.714667 0 1 0-57.429333 0Z" fill="#6ED6AB" /><path d="M454.570667 324.352m-28.714667 0a28.714667 28.714667 0 1 0 57.429333 0 28.714667 28.714667 0 1 0-57.429333 0Z" fill="#6ED6AB" /><path d="M569.429333 324.352m-28.714666 0a28.714667 28.714667 0 1 0 57.429333 0 28.714667 28.714667 0 1 0-57.429333 0Z" fill="#6ED6AB" /><path d="M454.570667 712.106667a53.077333 53.077333 0 1 1 53.077333-53.077334 53.162667 53.162667 0 0 1-53.077333 53.077334zM569.429333 712.106667a53.077333 53.077333 0 1 1 53.077334-53.077334 53.162667 53.162667 0 0 1-53.077334 53.077334z" fill="#4F2AB5" /><path d="M454.570667 798.122667a53.077333 53.077333 0 1 1 53.077333-53.077334 53.162667 53.162667 0 0 1-53.077333 53.077334zM569.429333 798.122667a53.077333 53.077333 0 1 1 53.077334-53.077334 53.162667 53.162667 0 0 1-53.077334 53.077334z" fill="#4F2AB5" /><path d="M454.570667 658.986667m-28.714667 0a28.714667 28.714667 0 1 0 57.429333 0 28.714667 28.714667 0 1 0-57.429333 0Z" fill="#EDC35B" /><path d="M569.429333 658.986667m-28.714666 0a28.714667 28.714667 0 1 0 57.429333 0 28.714667 28.714667 0 1 0-57.429333 0Z" fill="#EDC35B" /><path d="M454.570667 745.045333m-28.714667 0a28.714667 28.714667 0 1 0 57.429333 0 28.714667 28.714667 0 1 0-57.429333 0Z" fill="#EDC35B" /><path d="M569.429333 745.045333m-28.714666 0a28.714667 28.714667 0 1 0 57.429333 0 28.714667 28.714667 0 1 0-57.429333 0Z" fill="#EDC35B" /><path d="M298.666667 341.76a42.666667 42.666667 0 0 1-42.666667-42.666667v-42.666666a42.666667 42.666667 0 0 1 85.333333 0v42.666666a42.666667 42.666667 0 0 1-42.666666 42.666667zM725.333333 341.76a42.666667 42.666667 0 0 1-42.666666-42.666667v-42.666666a42.666667 42.666667 0 0 1 85.333333 0v42.666666a42.666667 42.666667 0 0 1-42.666667 42.666667zM298.666667 764.416a42.666667 42.666667 0 0 1-42.666667-42.666667v-42.666666a42.666667 42.666667 0 0 1 85.333333 0v42.666666a42.666667 42.666667 0 0 1-42.666666 42.666667zM725.333333 764.416a42.666667 42.666667 0 0 1-42.666666-42.666667v-42.666666a42.666667 42.666667 0 1 1 85.333333 0v42.666666a42.666667 42.666667 0 0 1-42.666667 42.666667z" fill="#301196" /><path d="M572.501333 491.690667A60.544 60.544 0 1 1 512 431.104a60.586667 60.586667 0 0 1 60.586667 60.586667z" fill="#D04C83" /></svg>