<?xml version="1.0" standalone="no"?><!DOCTYPE svg PUBLIC "-//W3C//DTD SVG 1.1//EN" "http://www.w3.org/Graphics/SVG/1.1/DTD/svg11.dtd"><svg class="icon" width="200px" height="200.00px" viewBox="0 0 1024 1024" version="1.1" xmlns="http://www.w3.org/2000/svg"><path d="M256 85.333333m42.666667 0l426.666666 0q42.666667 0 42.666667 42.666667l0 767.829333q0 42.666667-42.666667 42.666667l-426.666666 0q-42.666667 0-42.666667-42.666667l0-767.829333q0-42.666667 42.666667-42.666667Z" fill="#4F2AB5" /><path d="M256 85.333333m42.666667 0l426.666666 0q42.666667 0 42.666667 42.666667l0 682.496q0 42.666667-42.666667 42.666667l-426.666666 0q-42.666667 0-42.666667-42.666667l0-682.496q0-42.666667 42.666667-42.666667Z" fill="#723FDB" /><path d="M298.666667 110.933333h426.666666a17.066667 17.066667 0 0 1 17.066667 17.066667v682.538667a17.066667 17.066667 0 0 1-17.066667 17.066666H298.666667a17.066667 17.066667 0 0 1-17.066667-17.109333V127.957333a17.066667 17.066667 0 0 1 17.066667-17.066666z" fill="#7750E2" /><path d="M512 457.514667a156.202667 156.202667 0 1 1 156.245333-156.245334A156.416 156.416 0 0 1 512 457.514667z" fill="#4F2AB5" /><path d="M642.645333 301.269333A130.645333 130.645333 0 1 1 512 170.666667a130.645333 130.645333 0 0 1 130.645333 130.602666z" fill="#EDC35B" /><path d="M512 346.581333a45.312 45.312 0 1 1 45.312-45.312A45.354667 45.354667 0 0 1 512 346.581333zM512 786.773333a156.202667 156.202667 0 1 1 156.245333-156.245333A156.416 156.416 0 0 1 512 786.773333z" fill="#4F2AB5" /><path d="M642.645333 630.528A130.645333 130.645333 0 1 1 512 499.925333a130.602667 130.602667 0 0 1 130.645333 130.602667z" fill="#6ED6AB" /><path d="M512 675.84a45.312 45.312 0 1 1 45.312-45.312A45.354667 45.354667 0 0 1 512 675.84z" fill="#4F2AB5" /><path d="M720.213333 754.048a28.416 28.416 0 1 1-28.416-28.458667 28.458667 28.458667 0 0 1 28.458667 28.458667z" fill="#6ED6AB" /><path d="M323.754667 715.050667h19.882666a12.16 12.16 0 0 1 12.117334 12.117333v53.717333a12.117333 12.117333 0 0 1-12.117334 12.117334H323.84a12.16 12.16 0 0 1-12.16-12.16v-53.674667a12.117333 12.117333 0 0 1 12.117333-12.117333z" fill="#4F2AB5" /><path d="M323.797333 784.469333l-3.626666-3.584v-53.717333l3.626666-3.584h19.84l3.584 3.584v53.717333l-3.584 3.584h-19.84z" fill="#A02D67" /><path d="M347.221333 754.048v-26.88l-3.584-3.584h-19.84l-3.626666 3.584v26.88h27.050666z" fill="#D04C83" /></svg>