<?xml version="1.0" standalone="no"?><!DOCTYPE svg PUBLIC "-//W3C//DTD SVG 1.1//EN" "http://www.w3.org/Graphics/SVG/1.1/DTD/svg11.dtd"><svg class="icon" width="200px" height="200.00px" viewBox="0 0 1024 1024" version="1.1" xmlns="http://www.w3.org/2000/svg"><path d="M170.666667 85.333333m85.333333 0l512 0q85.333333 0 85.333333 85.333334l0 682.666666q0 85.333333-85.333333 85.333334l-512 0q-85.333333 0-85.333333-85.333334l0-682.666666q0-85.333333 85.333333-85.333334Z" fill="#A02D67" /><path d="M170.666667 85.333333m85.333333 0l512 0q85.333333 0 85.333333 85.333334l0 597.333333q0 85.333333-85.333333 85.333333l-512 0q-85.333333 0-85.333333-85.333333l0-597.333333q0-85.333333 85.333333-85.333334Z" fill="#D04C83" /><path d="M256 110.933333h512A59.733333 59.733333 0 0 1 827.733333 170.666667v597.333333a59.733333 59.733333 0 0 1-59.733333 59.733333H256A59.733333 59.733333 0 0 1 196.266667 768V170.666667A59.733333 59.733333 0 0 1 256 110.933333z" fill="#D86097" /><path d="M256 140.8h512a29.866667 29.866667 0 0 1 29.866667 29.866667v264.533333a29.866667 29.866667 0 0 1-29.866667 29.866667H256a29.866667 29.866667 0 0 1-29.866667-29.866667V170.666667a29.866667 29.866667 0 0 1 29.866667-29.866667z" fill="#D04C83" /><path d="M256 153.6h512a17.066667 17.066667 0 0 1 17.066667 17.066667v264.533333a17.066667 17.066667 0 0 1-17.066667 17.066667H256a17.066667 17.066667 0 0 1-17.066667-17.066667V170.666667a17.066667 17.066667 0 0 1 17.066667-17.066667z" fill="#EDC35B" /><path d="M350.165333 777.045333a51.328 51.328 0 0 1-51.285333-51.2v-8.704h-8.661333a51.285333 51.285333 0 1 1 0-102.528h8.661333V605.866667a51.285333 51.285333 0 0 1 102.570667 0v8.704h8.661333a51.285333 51.285333 0 1 1 0 102.528h-8.661333v8.661333a51.328 51.328 0 0 1-51.285334 51.242667z" fill="#4F2AB5" /><path d="M410.112 640.170667h-34.261333v-34.261334a25.685333 25.685333 0 0 0-51.370667 0v34.261334h-34.261333a25.685333 25.685333 0 1 0 0 51.370666h34.261333v34.261334a25.685333 25.685333 0 0 0 51.370667 0v-34.261334h34.261333a25.685333 25.685333 0 0 0 0-51.370666z" fill="#EDC35B" /><path d="M712.490667 777.045333a72.576 72.576 0 1 1 72.576-72.533333 72.661333 72.661333 0 0 1-72.576 72.533333z" fill="#4F2AB5" /><path d="M756.053333 704.469333a43.52 43.52 0 1 1-43.562666-43.562666 43.52 43.52 0 0 1 43.52 43.562666z" fill="#6ED6AB" /><path d="M638.976 580.266667h-145.066667a42.666667 42.666667 0 1 1 0-85.333334h145.066667a42.666667 42.666667 0 0 1 0 85.333334z" fill="#723FDB" /><path d="M537.728 558.933333h-42.666667a21.333333 21.333333 0 1 1 0-42.666666h42.666667a21.333333 21.333333 0 0 1 0 42.666666zM637.866667 558.933333h-42.666667a21.333333 21.333333 0 0 1 0-42.666666h42.666667a21.333333 21.333333 0 0 1 0 42.666666z" fill="#301196" /><path d="M288.64 409.6h128v42.666667h-128zM331.306667 366.933333h42.666666v42.666667h-42.666666z" fill="#E0B453" /><path d="M416.64 238.933333h42.666667v85.333334h-42.666667zM373.973333 238.933333h42.666667v42.666667h-42.666667z" fill="#DDA854" /><path d="M673.109333 324.266667h42.666667v128h-42.666667z" fill="#DD8C54" /><path d="M545.109333 366.933333h85.333334v42.666667h-85.333334zM502.442667 324.266667h85.333333v42.666666h-85.333333z" fill="#DDA854" /><path d="M502.442667 409.6h128v42.666667h-128zM502.442667 366.933333h42.666666v42.666667h-42.666666z" fill="#E0B453" /></svg>