<?xml version="1.0" standalone="no"?><!DOCTYPE svg PUBLIC "-//W3C//DTD SVG 1.1//EN" "http://www.w3.org/Graphics/SVG/1.1/DTD/svg11.dtd"><svg class="icon" width="200px" height="200.00px" viewBox="0 0 1024 1024" version="1.1" xmlns="http://www.w3.org/2000/svg"><path d="M148.608 128m42.666667 0l278.058666 0q42.666667 0 42.666667 42.666667l0 686.890666q0 42.666667-42.666667 42.666667l-278.058666 0q-42.666667 0-42.666667-42.666667l0-686.890666q0-42.666667 42.666667-42.666667Z" fill="#4F2AB5" /><path d="M512 244.053333m42.666667 0l278.058666 0q42.666667 0 42.666667 42.666667l0 414.336q0 42.666667-42.666667 42.666667l-278.058666 0q-42.666667 0-42.666667-42.666667l0-414.336q0-42.666667 42.666667-42.666667Z" fill="#4F2AB5" /><path d="M148.608 128m42.666667 0l278.058666 0q42.666667 0 42.666667 42.666667l0 596.053333q0 42.666667-42.666667 42.666667l-278.058666 0q-42.666667 0-42.666667-42.666667l0-596.053333q0-42.666667 42.666667-42.666667Z" fill="#723FDB" /><path d="M192.896 155.221333h274.773333a17.066667 17.066667 0 0 1 17.066667 17.066667v592.768a17.066667 17.066667 0 0 1-17.066667 17.066667h-274.773333a17.066667 17.066667 0 0 1-17.066667-17.066667V172.288a17.066667 17.066667 0 0 1 17.066667-17.066667z" fill="#7750E2" /><path d="M512 244.053333m42.666667 0l278.058666 0q42.666667 0 42.666667 42.666667l0 323.498667q0 42.666667-42.666667 42.666666l-278.058666 0q-42.666667 0-42.666667-42.666666l0-323.498667q0-42.666667 42.666667-42.666667Z" fill="#723FDB" /><path d="M556.330667 271.274667h274.730666a17.066667 17.066667 0 0 1 17.066667 17.066666v320.213334a17.066667 17.066667 0 0 1-17.066667 17.066666h-274.773333a17.066667 17.066667 0 0 1-17.066667-17.066666V288.426667a17.066667 17.066667 0 0 1 17.066667-17.066667z" fill="#7750E2" /><path d="M264.746667 257.536m-51.968 0a51.968 51.968 0 1 0 103.936 0 51.968 51.968 0 1 0-103.936 0Z" fill="#4F2AB5" /><path d="M302.165333 257.536a37.418667 37.418667 0 1 1-37.418666-37.418667 37.418667 37.418667 0 0 1 37.418666 37.418667z" fill="#EDC35B" /><path d="M397.824 309.504a51.968 51.968 0 1 1 51.968-51.968 52.010667 52.010667 0 0 1-51.968 51.968z" fill="#4F2AB5" /><path d="M435.2 257.536a37.418667 37.418667 0 1 1-37.376-37.418667 37.418667 37.418667 0 0 1 37.418667 37.418667z" fill="#EDC35B" /><path d="M264.746667 398.293333m-51.968 0a51.968 51.968 0 1 0 103.936 0 51.968 51.968 0 1 0-103.936 0Z" fill="#4F2AB5" /><path d="M302.165333 398.293333a37.418667 37.418667 0 1 1-37.418666-37.418666 37.418667 37.418667 0 0 1 37.418666 37.418666z" fill="#EDC35B" /><path d="M397.824 450.261333a51.968 51.968 0 1 1 51.968-51.968 52.010667 52.010667 0 0 1-51.968 51.968z" fill="#4F2AB5" /><path d="M435.2 398.293333a37.418667 37.418667 0 1 1-37.376-37.418666 37.418667 37.418667 0 0 1 37.418667 37.418666z" fill="#EDC35B" /><path d="M264.746667 591.018667a51.968 51.968 0 1 1 52.010666-51.968 52.053333 52.053333 0 0 1-52.010666 51.968z" fill="#4F2AB5" /><path d="M302.165333 539.050667a37.418667 37.418667 0 1 1-37.418666-37.418667 37.418667 37.418667 0 0 1 37.418666 37.418667z" fill="#EDC35B" /><path d="M397.824 591.018667a51.968 51.968 0 1 1 51.968-51.968 52.053333 52.053333 0 0 1-51.968 51.968z" fill="#4F2AB5" /><path d="M435.2 539.050667a37.418667 37.418667 0 1 1-37.376-37.418667 37.418667 37.418667 0 0 1 37.418667 37.418667z" fill="#EDC35B" /><path d="M264.746667 731.776a51.968 51.968 0 1 1 52.010666-51.968 52.053333 52.053333 0 0 1-52.010666 51.968z" fill="#4F2AB5" /><path d="M302.165333 679.808a37.418667 37.418667 0 1 1-37.418666-37.376 37.418667 37.418667 0 0 1 37.418666 37.376z" fill="#EDC35B" /><path d="M397.824 731.776a51.968 51.968 0 1 1 51.968-51.968 52.053333 52.053333 0 0 1-51.968 51.968z" fill="#4F2AB5" /><path d="M435.2 679.808a37.418667 37.418667 0 1 1-37.376-37.376 37.418667 37.418667 0 0 1 37.418667 37.376z" fill="#EDC35B" /><path d="M627.2 434.56a51.968 51.968 0 1 1 51.925333-52.053333 52.053333 52.053333 0 0 1-51.968 52.053333z" fill="#4F2AB5" /><path d="M664.576 382.549333a37.418667 37.418667 0 1 1-37.418667-37.376 37.418667 37.418667 0 0 1 37.418667 37.376z" fill="#6ED6AB" /><path d="M760.234667 434.56a51.968 51.968 0 1 1 51.968-52.053333 52.053333 52.053333 0 0 1-51.968 52.053333z" fill="#4F2AB5" /><path d="M797.610667 382.549333a37.376 37.376 0 1 1-37.376-37.376 37.376 37.376 0 0 1 37.376 37.376z" fill="#6ED6AB" /><path d="M627.157333 523.349333m-51.968 0a51.968 51.968 0 1 0 103.936 0 51.968 51.968 0 1 0-103.936 0Z" fill="#4F2AB5" /><path d="M664.576 523.349333a37.418667 37.418667 0 1 1-37.418667-37.418666 37.418667 37.418667 0 0 1 37.418667 37.418666z" fill="#6ED6AB" /><path d="M760.234667 523.349333m-51.968 0a51.968 51.968 0 1 0 103.936 0 51.968 51.968 0 1 0-103.936 0Z" fill="#4F2AB5" /><path d="M797.610667 523.349333a37.376 37.376 0 1 1-37.376-37.418666 37.376 37.376 0 0 1 37.376 37.418666z" fill="#6ED6AB" /></svg>