<?xml version="1.0" standalone="no"?><!DOCTYPE svg PUBLIC "-//W3C//DTD SVG 1.1//EN" "http://www.w3.org/Graphics/SVG/1.1/DTD/svg11.dtd"><svg class="icon" width="200px" height="200.00px" viewBox="0 0 1024 1024" version="1.1" xmlns="http://www.w3.org/2000/svg"><path d="M170.666667 298.666667m170.666666 0l341.333334 0q170.666667 0 170.666666 170.666666l0 298.666667q0 170.666667-170.666666 170.666667l-341.333334 0q-170.666667 0-170.666666-170.666667l0-298.666667q0-170.666667 170.666666-170.666666Z" fill="#4F2AB5" /><path d="M170.666667 296.576m170.666666 0l341.333334 0q170.666667 0 170.666666 170.666667l0 213.333333q0 170.666667-170.666666 170.666667l-341.333334 0q-170.666667 0-170.666666-170.666667l0-213.333333q0-170.666667 170.666666-170.666667Z" fill="#723FDB" /><path d="M341.333333 322.176h341.333334a145.066667 145.066667 0 0 1 145.066666 145.066667v213.376a145.066667 145.066667 0 0 1-145.066666 145.066666H341.333333a145.066667 145.066667 0 0 1-145.066666-145.066666V467.2a145.066667 145.066667 0 0 1 145.066666-145.066667z" fill="#7750E2" /><path d="M512.213333 728.576A173.866667 173.866667 0 1 1 686.08 554.666667a174.08 174.08 0 0 1-173.866667 173.909333z m0-315.733333A141.866667 141.866667 0 1 0 654.08 554.666667a142.037333 142.037333 0 0 0-141.866667-141.866667z" fill="#EDC35B" /><path d="M512.213333 554.666667m-149.333333 0a149.333333 149.333333 0 1 0 298.666667 0 149.333333 149.333333 0 1 0-298.666667 0Z" fill="#4F2AB5" /><path d="M512.213333 554.666667m-106.666666 0a106.666667 106.666667 0 1 0 213.333333 0 106.666667 106.666667 0 1 0-213.333333 0Z" fill="#723FDB" /><path d="M600.192 554.666667a87.978667 87.978667 0 1 1-87.978667-87.978667A87.978667 87.978667 0 0 1 600.192 554.666667z" fill="#4F2AB5" /><path d="M573.184 554.666667a60.970667 60.970667 0 1 1-60.970667-61.013334 61.013333 61.013333 0 0 1 61.013334 61.013334z" fill="#723FDB" /><path d="M512.213333 341.333333a42.666667 42.666667 0 0 1 42.666667 42.666667v170.666667a42.666667 42.666667 0 0 1-85.333333 0V384a42.666667 42.666667 0 0 1 42.666666-42.666667z" fill="#301196" /><path d="M682.88 256a170.666667 170.666667 0 1 1-170.666667-170.666667 170.666667 170.666667 0 0 1 170.666667 170.666667z" fill="#6ED6AB" /><path d="M512.213333 400.298667a170.112 170.112 0 0 1-169.301333-157.482667c-0.341333 4.437333-1.365333 8.661333-1.365333 13.226667a170.666667 170.666667 0 0 0 341.333333 0c0-4.565333-0.981333-8.789333-1.322667-13.226667a170.112 170.112 0 0 1-169.344 157.482667z" fill="#67C99D" /><path d="M715.306667 785.152a72.576 72.576 0 1 1 72.533333-72.576 72.661333 72.661333 0 0 1-72.533333 72.533333z" fill="#4F2AB5" /><path d="M715.264 712.576m-43.562667 0a43.562667 43.562667 0 1 0 87.125334 0 43.562667 43.562667 0 1 0-87.125334 0Z" fill="#D04C83" /></svg>