<?xml version="1.0" standalone="no"?><!DOCTYPE svg PUBLIC "-//W3C//DTD SVG 1.1//EN" "http://www.w3.org/Graphics/SVG/1.1/DTD/svg11.dtd"><svg class="icon" width="200px" height="200.00px" viewBox="0 0 1024 1024" version="1.1" xmlns="http://www.w3.org/2000/svg"><path d="M512 321.365333a21.333333 21.333333 0 0 1-21.333333-21.333333v-85.333333a64 64 0 1 1 128 0 21.333333 21.333333 0 0 0 21.333333 21.333333 21.973333 21.973333 0 0 0 23.637333-21.333333V151.637333a21.333333 21.333333 0 0 1 42.666667 0v63.061334a65.152 65.152 0 0 1-130.304 0 21.333333 21.333333 0 1 0-42.666667 0v85.333333a21.333333 21.333333 0 0 1-21.333333 21.333333z" fill="#D04C83" /><path d="M512 342.698667m-85.333333 0a85.333333 85.333333 0 1 0 170.666666 0 85.333333 85.333333 0 1 0-170.666666 0Z" fill="#4F2AB5" /><path d="M85.333333 343.509333m234.666667 0l384 0q234.666667 0 234.666667 234.666667l0 84.48q0 234.666667-234.666667 234.666667l-384 0q-234.666667 0-234.666667-234.666667l0-84.48q0-234.666667 234.666667-234.666667Z" fill="#4F2AB5" /><path d="M704 812.032h-384a234.666667 234.666667 0 0 1 0-469.333333h384a234.666667 234.666667 0 1 1 0 469.333333z" fill="#723FDB" /><path d="M320 786.432a209.066667 209.066667 0 0 1 0-418.218667h384a209.066667 209.066667 0 0 1 0 418.218667z" fill="#7750E2" /><path d="M554.662269 577.651503m60.339779-60.339778l49.991507-49.991507q60.339779-60.339779 120.679557 0l49.991507 49.991507q60.339779 60.339779 0 120.679557l-49.991507 49.991507q-60.339779 60.339779-120.679557 0l-49.991507-49.991507q-60.339779-60.339779 0-120.679557Z" fill="#4F2AB5" /><path d="M725.333333 502.954667m-32 0a32 32 0 1 0 64 0 32 32 0 1 0-64 0Z" fill="#EDC35B" /><path d="M725.333333 652.288m-32 0a32 32 0 1 0 64 0 32 32 0 1 0-64 0Z" fill="#EDC35B" /><path d="M802.304 577.621333m-32 0a32 32 0 1 0 64 0 32 32 0 1 0-64 0Z" fill="#EDC35B" /><path d="M648.576 577.621333m-32 0a32 32 0 1 0 64 0 32 32 0 1 0-64 0Z" fill="#EDC35B" /><path d="M288 709.845333a57.642667 57.642667 0 0 1-57.6-57.6v-17.066666H213.333333a57.6 57.6 0 1 1 0-115.2h17.066667v-17.066667a57.6 57.6 0 0 1 115.2 0v17.066667h17.066667a57.6 57.6 0 1 1 0 115.2h-17.066667v17.066666a57.642667 57.642667 0 0 1-57.6 57.6z" fill="#4F2AB5" /><path d="M362.666667 545.621333h-42.666667v-42.666666a32 32 0 0 0-64 0v42.666666H213.333333a32 32 0 0 0 0 64h42.666667v42.666667a32 32 0 0 0 64 0v-42.666667h42.666667a32 32 0 0 0 0-64z" fill="#6ED6AB" /><path d="M483.285333 693.504h-42.666666a21.333333 21.333333 0 1 1 0-42.666667h42.666666a21.333333 21.333333 0 0 1 0 42.666667zM583.381333 693.504h-42.666666a21.333333 21.333333 0 1 1 0-42.666667h42.666666a21.333333 21.333333 0 0 1 0 42.666667z" fill="#301196" /></svg>