<?xml version="1.0" standalone="no"?><!DOCTYPE svg PUBLIC "-//W3C//DTD SVG 1.1//EN" "http://www.w3.org/Graphics/SVG/1.1/DTD/svg11.dtd"><svg class="icon" width="200px" height="200.00px" viewBox="0 0 1024 1024" version="1.1" xmlns="http://www.w3.org/2000/svg"><path d="M88.32 344.064m42.666667 0l338.304 0q42.666667 0 42.666666 42.666667l0 466.304q0 42.666667-42.666666 42.666666l-338.304 0q-42.666667 0-42.666667-42.666666l0-466.304q0-42.666667 42.666667-42.666667Z" fill="#A02D67" /><path d="M512 127.616m42.666667 0l338.304 0q42.666667 0 42.666666 42.666667l0 466.346666q0 42.666667-42.666666 42.666667l-338.304 0q-42.666667 0-42.666667-42.666667l0-466.346666q0-42.666667 42.666667-42.666667Z" fill="#A02D67" /><path d="M88.32 344.064m42.666667 0l338.304 0q42.666667 0 42.666666 42.666667l0 338.304q0 42.666667-42.666666 42.666666l-338.304 0q-42.666667 0-42.666667-42.666666l0-338.304q0-42.666667 42.666667-42.666667Z" fill="#D04C83" /><path d="M130.986667 369.621333H469.333333a17.066667 17.066667 0 0 1 17.066667 17.066667v338.346667a17.066667 17.066667 0 0 1-17.066667 17.066666H130.986667a17.066667 17.066667 0 0 1-17.066667-17.066666v-338.346667a17.066667 17.066667 0 0 1 17.066667-17.066667z" fill="#D86097" /><path d="M512 127.616m42.666667 0l338.304 0q42.666667 0 42.666666 42.666667l0 338.346666q0 42.666667-42.666666 42.666667l-338.304 0q-42.666667 0-42.666667-42.666667l0-338.346666q0-42.666667 42.666667-42.666667Z" fill="#D04C83" /><path d="M554.666667 153.173333h338.346666a17.066667 17.066667 0 0 1 17.066667 17.066667v338.389333a17.066667 17.066667 0 0 1-17.066667 17.066667H554.666667a17.066667 17.066667 0 0 1-17.066667-17.066667V170.24a17.066667 17.066667 0 0 1 17.066667-17.066667z" fill="#D86097" /><path d="M723.84 409.173333a69.674667 69.674667 0 1 1 69.674667-69.717333 69.802667 69.802667 0 0 1-69.674667 69.717333z" fill="#4F2AB5" /><path d="M776.448 339.456a52.608 52.608 0 1 1-52.608-52.565333 52.608 52.608 0 0 1 52.608 52.565333z" fill="#EDC35B" /><path d="M300.16 625.578667a69.674667 69.674667 0 1 1 69.674667-69.717334 69.802667 69.802667 0 0 1-69.674667 69.717334z" fill="#4F2AB5" /><path d="M352.768 555.861333a52.608 52.608 0 1 1-52.608-52.565333 52.608 52.608 0 0 1 52.608 52.565333z" fill="#7750E2" /><path d="M194.944 520.362667a69.674667 69.674667 0 1 1 69.674667-69.717334 69.76 69.76 0 0 1-69.674667 69.717334z" fill="#4F2AB5" /><path d="M247.552 450.645333A52.608 52.608 0 1 1 194.944 398.08a52.608 52.608 0 0 1 52.608 52.565333z" fill="#6ED6AB" /><path d="M405.376 730.794667a69.674667 69.674667 0 1 1 69.674667-69.674667 69.76 69.76 0 0 1-69.674667 69.674667z" fill="#4F2AB5" /><path d="M457.984 661.12a52.608 52.608 0 1 1-52.608-52.608 52.608 52.608 0 0 1 52.608 52.608z" fill="#6ED6AB" /></svg>