<?xml version="1.0" standalone="no"?><!DOCTYPE svg PUBLIC "-//W3C//DTD SVG 1.1//EN" "http://www.w3.org/Graphics/SVG/1.1/DTD/svg11.dtd"><svg class="icon" width="200px" height="200.00px" viewBox="0 0 1024 1024" version="1.1" xmlns="http://www.w3.org/2000/svg"><path d="M85.333333 213.674667m85.333334 0l682.666666 0q85.333333 0 85.333334 85.333333l0 426.666667q0 85.333333-85.333334 85.333333l-682.666666 0q-85.333333 0-85.333334-85.333333l0-426.666667q0-85.333333 85.333334-85.333333Z" fill="#4F2AB5" /><path d="M85.333333 213.674667m85.333334 0l682.666666 0q85.333333 0 85.333334 85.333333l0 341.333333q0 85.333333-85.333334 85.333334l-682.666666 0q-85.333333 0-85.333334-85.333334l0-341.333333q0-85.333333 85.333334-85.333333Z" fill="#723FDB" /><path d="M170.666667 239.232h682.666666a59.733333 59.733333 0 0 1 59.733334 59.733333v341.376a59.733333 59.733333 0 0 1-59.733334 59.733334H170.666667a59.733333 59.733333 0 0 1-59.733334-59.733334v-341.333333a59.733333 59.733333 0 0 1 59.733334-59.733333z" fill="#7750E2" /><path d="M788.48 368.938667V322.901333a40.96 40.96 0 1 1 81.92 0v46.08a40.96 40.96 0 1 1-81.92 0zM788.48 519.253333v-46.08a40.96 40.96 0 1 1 81.92-0.042666v46.08a40.96 40.96 0 0 1-81.92 0zM240.64 652.928H194.56a40.96 40.96 0 0 1 0-81.962667h46.08a40.96 40.96 0 0 1 0 81.92zM390.912 652.928h-46.08a40.96 40.96 0 0 1 0-81.962667h46.08a40.96 40.96 0 0 1 0 81.92z" fill="#4F2AB5" /><path d="M170.666667 281.898667h563.2a17.066667 17.066667 0 0 1 17.066666 17.066666v221.866667a17.066667 17.066667 0 0 1-17.066666 17.066667H170.666667a17.066667 17.066667 0 0 1-17.066667-17.066667v-221.866667a17.066667 17.066667 0 0 1 17.066667-17.066666z" fill="#EDC35B" /><path d="M646.144 621.056m-61.952 0a61.952 61.952 0 1 0 123.904 0 61.952 61.952 0 1 0-123.904 0Z" fill="#4F2AB5" /><path d="M646.144 621.056m-42.666667 0a42.666667 42.666667 0 1 0 85.333334 0 42.666667 42.666667 0 1 0-85.333334 0Z" fill="#D04C83" /><path d="M341.504 592.256v41.685333l57.941333-20.821333-57.941333-20.864zM246.570667 633.941333v-41.685333l-57.941334 20.864 57.941334 20.821333z" fill="#6ED6AB" /><path d="M850.304 470.016h-41.728l20.864 57.941333 20.864-57.941333zM808.576 375.04h41.728l-20.864-57.898667-20.864 57.898667z" fill="#EDC35B" /><path d="M278.698667 465.792h-17.664v-33.024h-0.554667l-7.594667 5.632a31.701333 31.701333 0 0 1-11.562666 2.133333 29.866667 29.866667 0 0 1-11.52-2.218666l-9.130667-6.442667a30.549333 30.549333 0 0 1-5.973333-10.794667 48.170667 48.170667 0 0 1-2.176-15.061333 42.453333 42.453333 0 0 1 2.773333-15.914667 31.786667 31.786667 0 0 1 7.808-11.648 32.896 32.896 0 0 1 12.032-7.082666 48.256 48.256 0 0 1 15.573333-2.389334l8.362667 0.341334 7.893333 0.981333 6.826667 1.365333 4.906667 1.408z m-32.597334-40.234667l9.301334-2.304 5.632-6.912V386.133333l-5.12-1.621333-6.314667-0.554667a18.048 18.048 0 0 0-13.696 5.418667 22.357333 22.357333 0 0 0-5.205333 15.914667 23.893333 23.893333 0 0 0 4.096 15.104 13.568 13.568 0 0 0 11.306666 5.12zM335.957333 386.944l10.154667 29.781333h0.725333l1.194667-11.690666 5.589333-34.432h15.914667l-13.738667 68.010666h-17.792l-7.637333-26.922666h-0.682667l-8.533333 26.922666h-18.389333l-14.250667-68.010666h17.664l6.656 37.674666 1.109333 8.448h0.682667l10.026667-29.781333h11.306666zM442.410667 431.402667l-4.565334 3.2-6.528 2.944-8.234666 2.133333-9.514667 0.853333a46.378667 46.378667 0 0 1-15.573333-2.432 32 32 0 0 1-11.605334-7.168 31.317333 31.317333 0 0 1-7.253333-11.306666 41.941333 41.941333 0 0 1-2.56-15.018667 39.722667 39.722667 0 0 1 2.901333-15.701333 31.146667 31.146667 0 0 1 7.808-11.221334 32.512 32.512 0 0 1 11.605334-6.741333 45.824 45.824 0 0 1 14.421333-2.218667l10.666667 1.365334 10.154666 4.693333 7.509334 8.874667a30.421333 30.421333 0 0 1 2.944 14.165333 64 64 0 0 1-1.365334 12.629333H394.24l1.834667 7.338667 4.48 4.906667 6.4 2.816 7.68 0.853333a39.253333 39.253333 0 0 0 13.397333-1.92l8.490667-4.608zM413.013333 382.890667l-6.613333 0.938666-5.674667 2.816-4.138666 4.693334-1.92 6.186666h33.450666a13.44 13.44 0 0 0-15.104-14.634666zM456.661333 423.68h16.853334v-38.101333h-16.853334v-14.933334h30.592l2.048 8.96h0.554667l8.704-7.466666a21.418667 21.418667 0 0 1 11.392-2.986667 15.445333 15.445333 0 0 1 12.885333 5.973333 32.896 32.896 0 0 1 4.693334 20.010667h-15.957334l-1.408-7.168-4.565333-2.261333-8.746667 2.730666-5.632 6.272v28.970667h29.482667v14.933333h-64zM548.693333 385.578667h-13.44v-14.933334h13.482667v-15.530666l17.664-4.992v20.48h35.626667v14.976h-35.626667v19.456a23.424 23.424 0 0 0 3.925333 15.146666 13.525333 13.525333 0 0 0 11.008 4.693334l6.656-0.853334 5.376-2.261333 4.352-2.986667 3.584-2.986666 8.192 12.202666-5.76 4.949334-7.509333 3.968-8.362667 2.645333-8.533333 0.938667a29.354667 29.354667 0 0 1-22.954667-8.490667 39.552 39.552 0 0 1-7.68-26.965333zM655.445333 419.413333h5.162667l13.226667-48.810666h18.176l-19.285334 61.354666c-1.706667 5.12-3.413333 9.728-5.034666 13.909334a50.986667 50.986667 0 0 1-5.717334 10.965333l-7.68 7.125333a21.589333 21.589333 0 0 1-10.794666 2.517334l-5.930667-0.810667-5.12-1.962667-4.053333-2.432-2.858667-2.389333 9.088-12.117333 4.266667 2.773333 4.608 1.28 6.4-2.816a29.994667 29.994667 0 0 0 4.608-9.386667h-9.685334l-28.288-67.968h19.2z" fill="#DDA854" /></svg>