<?xml version="1.0" standalone="no"?><!DOCTYPE svg PUBLIC "-//W3C//DTD SVG 1.1//EN" "http://www.w3.org/Graphics/SVG/1.1/DTD/svg11.dtd"><svg class="icon" width="200px" height="200.00px" viewBox="0 0 1024 1024" version="1.1" xmlns="http://www.w3.org/2000/svg"><path d="M810.666667 558.250667m42.666666 0l42.666667 0q42.666667 0 42.666667 42.666666l0 85.333334q0 42.666667-42.666667 42.666666l-42.666667 0q-42.666667 0-42.666666-42.666666l0-85.333334q0-42.666667 42.666666-42.666666Z" fill="#4F2AB5" /><path d="M256 85.333333m42.666667 0l426.666666 0q42.666667 0 42.666667 42.666667l0 640q0 42.666667-42.666667 42.666667l-426.666666 0q-42.666667 0-42.666667-42.666667l0-640q0-42.666667 42.666667-42.666667Z" fill="#4F2AB5" /><path d="M256 554.666667H171.52a42.666667 42.666667 0 0 1 0-85.333334H256v-42.666666H171.52a85.333333 85.333333 0 0 0 0.042667 170.666666H256zM810.666667 426.666667h-42.666667v42.666666h42.666667a42.709333 42.709333 0 0 1 42.666666 42.666667v46.250667h42.666667V512a85.418667 85.418667 0 0 0-85.333333-85.333333z" fill="#D04C83" /><path d="M187.733333 768h648.533334a17.066667 17.066667 0 0 1 17.066666 17.066667v136.533333a17.066667 17.066667 0 0 1-17.066666 17.066667H187.733333a17.066667 17.066667 0 0 1-17.066666-17.066667v-136.533333a17.066667 17.066667 0 0 1 17.066666-17.066667z" fill="#4F2AB5" /><path d="M187.733333 768h648.533334a17.066667 17.066667 0 0 1 17.066666 17.066667v93.866666a17.066667 17.066667 0 0 1-17.066666 17.066667H187.733333a17.066667 17.066667 0 0 1-17.066666-17.066667v-93.866666a17.066667 17.066667 0 0 1 17.066666-17.066667z" fill="#7750E2" /><path d="M256 85.333333m42.666667 0l426.666666 0q42.666667 0 42.666667 42.666667l0 554.666667q0 42.666667-42.666667 42.666666l-426.666666 0q-42.666667 0-42.666667-42.666666l0-554.666667q0-42.666667 42.666667-42.666667Z" fill="#723FDB" /><path d="M307.2 110.933333h409.6a25.6 25.6 0 0 1 25.6 25.6v537.6a25.6 25.6 0 0 1-25.6 25.6H307.2a25.6 25.6 0 0 1-25.6-25.6V136.533333a25.6 25.6 0 0 1 25.6-25.6z" fill="#301196" /><path d="M307.2 110.933333h409.6a25.6 25.6 0 0 1 25.6 25.6V597.333333a25.6 25.6 0 0 1-25.6 25.6H307.2a25.6 25.6 0 0 1-25.6-25.6V136.533333a25.6 25.6 0 0 1 25.6-25.6z" fill="#7750E2" /><path d="M320 147.242667m42.666667 0l298.666666 0q42.666667 0 42.666667 42.666666l0 170.666667q0 42.666667-42.666667 42.666667l-298.666666 0q-42.666667 0-42.666667-42.666667l0-170.666667q0-42.666667 42.666667-42.666666Z" fill="#4F2AB5" /><path d="M682.666667 531.242667h-213.333334a21.333333 21.333333 0 0 1 0-42.666667h213.333334a21.333333 21.333333 0 1 1 0 42.666667z" fill="#4F2AB5" /><path d="M639.018667 304.426667h-87.594667a21.333333 21.333333 0 0 1 0-42.666667h87.594667a21.333333 21.333333 0 0 1 0 42.666667z" fill="#EDC35B" /><path d="M201.258667 781.312h21.248a10.666667 10.666667 0 0 1 10.666666 10.666667v21.333333a10.666667 10.666667 0 0 1-10.666666 10.666667h-21.333334a10.666667 10.666667 0 0 1-10.666666-10.666667v-21.333333a10.709333 10.709333 0 0 1 10.752-10.666667zM256.085333 781.312h21.333334a10.666667 10.666667 0 0 1 10.666666 10.666667v21.333333a10.666667 10.666667 0 0 1-10.666666 10.666667h-21.333334a10.666667 10.666667 0 0 1-10.666666-10.666667v-21.333333a10.709333 10.709333 0 0 1 10.666666-10.666667zM310.912 781.312h21.290667a10.666667 10.666667 0 0 1 10.666666 10.666667v21.333333a10.666667 10.666667 0 0 1-10.666666 10.666667h-21.290667a10.666667 10.666667 0 0 1-10.666667-10.666667v-21.333333a10.709333 10.709333 0 0 1 10.666667-10.666667zM365.781333 781.312h21.248a10.666667 10.666667 0 0 1 10.666667 10.666667v21.333333a10.666667 10.666667 0 0 1-10.666667 10.666667h-21.333333a10.666667 10.666667 0 0 1-10.666667-10.666667v-21.333333a10.709333 10.709333 0 0 1 10.752-10.666667zM420.608 781.312h21.290667a10.666667 10.666667 0 0 1 10.666666 10.666667v21.333333a10.666667 10.666667 0 0 1-10.666666 10.666667h-21.333334a10.666667 10.666667 0 0 1-10.666666-10.666667v-21.333333a10.709333 10.709333 0 0 1 10.709333-10.666667zM475.434667 781.312h21.290666a10.666667 10.666667 0 0 1 10.666667 10.666667v21.333333a10.666667 10.666667 0 0 1-10.666667 10.666667h-21.333333a10.666667 10.666667 0 0 1-10.666667-10.666667v-21.333333a10.709333 10.709333 0 0 1 10.709334-10.666667zM530.346667 781.312h21.248a10.666667 10.666667 0 0 1 10.666666 10.666667v21.333333a10.666667 10.666667 0 0 1-10.666666 10.666667h-21.333334a10.666667 10.666667 0 0 1-10.666666-10.666667v-21.333333a10.709333 10.709333 0 0 1 10.709333-10.666667zM585.130667 781.312h21.290666a10.666667 10.666667 0 0 1 10.666667 10.666667v21.333333a10.666667 10.666667 0 0 1-10.666667 10.666667h-21.333333a10.666667 10.666667 0 0 1-10.666667-10.666667v-21.333333a10.709333 10.709333 0 0 1 10.709334-10.666667zM640 781.312h21.248a10.666667 10.666667 0 0 1 10.666667 10.666667v21.333333a10.666667 10.666667 0 0 1-10.666667 10.666667h-21.333333a10.666667 10.666667 0 0 1-10.666667-10.666667v-21.333333a10.709333 10.709333 0 0 1 10.709333-10.666667zM694.826667 781.312h21.290666a10.666667 10.666667 0 0 1 10.666667 10.666667v21.333333a10.666667 10.666667 0 0 1-10.666667 10.666667h-21.333333a10.666667 10.666667 0 0 1-10.666667-10.666667v-21.333333a10.709333 10.709333 0 0 1 10.709334-10.666667zM749.653333 781.312h21.290667a10.666667 10.666667 0 0 1 10.666667 10.666667v21.333333a10.666667 10.666667 0 0 1-10.666667 10.666667h-21.333333a10.666667 10.666667 0 0 1-10.666667-10.666667v-21.333333a10.709333 10.709333 0 0 1 10.709333-10.666667zM804.48 781.312h21.290667a10.666667 10.666667 0 0 1 10.666666 10.666667v21.333333a10.666667 10.666667 0 0 1-10.666666 10.666667h-21.333334a10.666667 10.666667 0 0 1-10.666666-10.666667v-21.333333a10.709333 10.709333 0 0 1 10.709333-10.666667zM201.258667 832h21.248a10.666667 10.666667 0 0 1 10.666666 10.666667v21.333333a10.666667 10.666667 0 0 1-10.666666 10.666667h-21.333334a10.666667 10.666667 0 0 1-10.666666-10.666667v-21.290667a10.709333 10.709333 0 0 1 10.752-10.666666zM256.085333 832h21.333334a10.666667 10.666667 0 0 1 10.666666 10.666667v21.333333a10.666667 10.666667 0 0 1-10.666666 10.666667h-21.333334a10.666667 10.666667 0 0 1-10.666666-10.666667v-21.290667a10.709333 10.709333 0 0 1 10.666666-10.666666z" fill="#6ED6AB" /><path d="M310.912 832h240.64a10.666667 10.666667 0 0 1 10.709333 10.666667v21.333333a10.666667 10.666667 0 0 1-10.666666 10.666667H310.912a10.666667 10.666667 0 0 1-10.666667-10.666667v-21.290667a10.709333 10.709333 0 0 1 10.666667-10.666666z" fill="#EDC35B" /><path d="M585.130667 832h21.290666a10.666667 10.666667 0 0 1 10.666667 10.666667v21.333333a10.666667 10.666667 0 0 1-10.666667 10.666667h-21.333333a10.666667 10.666667 0 0 1-10.666667-10.666667v-21.290667a10.709333 10.709333 0 0 1 10.709334-10.666666zM640 832h21.248a10.666667 10.666667 0 0 1 10.666667 10.666667v21.333333a10.666667 10.666667 0 0 1-10.666667 10.666667h-21.333333a10.666667 10.666667 0 0 1-10.666667-10.666667v-21.290667a10.709333 10.709333 0 0 1 10.709333-10.666666zM694.826667 832h21.290666a10.666667 10.666667 0 0 1 10.666667 10.666667v21.333333a10.666667 10.666667 0 0 1-10.666667 10.666667h-21.333333a10.666667 10.666667 0 0 1-10.666667-10.666667v-21.290667a10.709333 10.709333 0 0 1 10.709334-10.666666zM749.653333 832h21.290667a10.666667 10.666667 0 0 1 10.666667 10.666667v21.333333a10.666667 10.666667 0 0 1-10.666667 10.666667h-21.333333a10.666667 10.666667 0 0 1-10.666667-10.666667v-21.290667a10.709333 10.709333 0 0 1 10.709333-10.666666zM804.48 832h21.290667a10.666667 10.666667 0 0 1 10.666666 10.666667v21.333333a10.666667 10.666667 0 0 1-10.666666 10.666667h-21.333334a10.666667 10.666667 0 0 1-10.666666-10.666667v-21.290667a10.709333 10.709333 0 0 1 10.709333-10.666666z" fill="#6ED6AB" /></svg>