<?xml version="1.0" standalone="no"?><!DOCTYPE svg PUBLIC "-//W3C//DTD SVG 1.1//EN" "http://www.w3.org/Graphics/SVG/1.1/DTD/svg11.dtd"><svg class="icon" width="200px" height="200.00px" viewBox="0 0 1024 1024" version="1.1" xmlns="http://www.w3.org/2000/svg"><path d="M793.002667 937.216H347.008a64 64 0 0 1 0-128h87.552a21.333333 21.333333 0 0 0 21.333333-21.333333v-81.066667a21.333333 21.333333 0 0 1 42.666667 0v81.066667a64.085333 64.085333 0 0 1-64 64H347.008a21.333333 21.333333 0 0 0 0 42.666666h445.994667a21.333333 21.333333 0 0 1 0 42.666667z" fill="#4F2AB5" /><path d="M84.608 306.218667m85.333333 0l688.469334 0q85.333333 0 85.333333 85.333333l0 256q0 85.333333-85.333333 85.333333l-688.469334 0q-85.333333 0-85.333333-85.333333l0-256q0-85.333333 85.333333-85.333333Z" fill="#A02D67" /><path d="M858.410667 306.218667h-346.453334a176.170667 176.170667 0 0 0-352.298666 0.170666l0.085333 0.853334a85.034667 85.034667 0 0 0-75.136 84.309333v170.666667a85.333333 85.333333 0 0 0 85.333333 85.333333h688.469334a85.333333 85.333333 0 0 0 85.333333-85.333333v-170.666667a85.333333 85.333333 0 0 0-85.333333-85.333333z" fill="#D04C83" /><path d="M169.941333 621.952a59.818667 59.818667 0 0 1-59.733333-59.733333v-170.666667a59.52 59.52 0 0 1 52.608-58.88l22.528-2.730667v-22.698666a150.528 150.528 0 1 1 301.013333-0.981334v25.514667h372.053334a59.818667 59.818667 0 0 1 59.733333 59.733333v170.666667a59.818667 59.818667 0 0 1-59.733333 59.776z" fill="#D86097" /><path d="M463.957333 306.346667a128.170667 128.170667 0 1 1-128.128-128.128 128.170667 128.170667 0 0 1 128.128 128.170666z" fill="#4F2AB5" /><path d="M335.829333 306.389333m-64 0a64 64 0 1 0 128 0 64 64 0 1 0-128 0Z" fill="#7750E2" /><path d="M335.829333 306.389333m-23.381333 0a23.381333 23.381333 0 1 0 46.762667 0 23.381333 23.381333 0 1 0-46.762667 0Z" fill="#301196" /><path d="M442.624 506.581333H228.992a21.333333 21.333333 0 0 1 0-42.666666h213.632a21.333333 21.333333 0 0 1 0 42.666666zM442.624 578.56H228.992a21.333333 21.333333 0 0 1 0-42.666667h213.632a21.333333 21.333333 0 0 1 0 42.666667z" fill="#D04C83" /><path d="M716.032 374.954667m17.066667 0l93.866666 0q17.066667 0 17.066667 17.066666l0 93.866667q0 17.066667-17.066667 17.066667l-93.866666 0q-17.066667 0-17.066667-17.066667l0-93.866667q0-17.066667 17.066667-17.066666Z" fill="#4F2AB5" /><path d="M780.032 481.621333a42.666667 42.666667 0 1 1 42.666667-42.666666 42.666667 42.666667 0 0 1-42.666667 42.666666z" fill="#6ED6AB" /><path d="M550.528 374.954667m17.066667 0l93.866666 0q17.066667 0 17.066667 17.066666l0 93.866667q0 17.066667-17.066667 17.066667l-93.866666 0q-17.066667 0-17.066667-17.066667l0-93.866667q0-17.066667 17.066667-17.066666Z" fill="#4F2AB5" /><path d="M614.528 481.621333a42.666667 42.666667 0 1 1 42.666667-42.666666 42.666667 42.666667 0 0 1-42.666667 42.666666z" fill="#EDC35B" /><path d="M776.533333 561.493333a25.514667 25.514667 0 1 1-25.472-25.6 25.557333 25.557333 0 0 1 25.514667 25.6zM844.032 561.493333a25.514667 25.514667 0 1 1-25.514667-25.6 25.557333 25.557333 0 0 1 25.514667 25.6z" fill="#301196" /></svg>