<?xml version="1.0" standalone="no"?><!DOCTYPE svg PUBLIC "-//W3C//DTD SVG 1.1//EN" "http://www.w3.org/Graphics/SVG/1.1/DTD/svg11.dtd"><svg class="icon" width="200px" height="200.00px" viewBox="0 0 1024 1024" version="1.1" xmlns="http://www.w3.org/2000/svg"><path d="M597.461333 169.770667h170.666667a85.333333 85.333333 0 0 1 85.333333 85.333333v512a85.333333 85.333333 0 0 1-85.333333 85.333333h-170.666667a85.333333 85.333333 0 0 1-85.333333-85.333333v-512a85.333333 85.333333 0 0 1 85.333333-85.333333z" fill="#D04C83" /><path d="M256.128 128.853333h170.666667a85.333333 85.333333 0 0 1 85.333333 85.333334v597.376a85.333333 85.333333 0 0 1-85.333333 85.333333h-170.666667a85.333333 85.333333 0 0 1-85.333333-85.333333v-597.333334a85.333333 85.333333 0 0 1 85.333333-85.333333z" fill="#A02D67" /><path d="M597.418667 195.413333h170.666666a59.733333 59.733333 0 0 1 59.776 59.733334v511.957333a59.733333 59.733333 0 0 1-59.733333 59.733333h-170.666667a59.733333 59.733333 0 0 1-59.733333-59.733333v-512a59.733333 59.733333 0 0 1 59.690667-59.733333z" fill="#D86097" /><path d="M256.128 128.853333h170.666667a85.333333 85.333333 0 0 1 85.333333 85.333334v512.042666a85.333333 85.333333 0 0 1-85.333333 85.333334h-170.666667a85.333333 85.333333 0 0 1-85.333333-85.333334v-512a85.333333 85.333333 0 0 1 85.333333-85.333333z" fill="#D04C83" /><path d="M256.128 154.453333h170.666667a59.733333 59.733333 0 0 1 59.733333 59.733334v512a59.733333 59.733333 0 0 1-59.733333 59.733333h-170.666667a59.733333 59.733333 0 0 1-59.733333-59.733333v-512a59.733333 59.733333 0 0 1 59.733333-59.733334z" fill="#D86097" /><path d="M331.776 540.288h19.285333a17.066667 17.066667 0 0 1 17.066667 17.066667V665.6a17.066667 17.066667 0 0 1-17.066667 17.066667h-19.2a17.066667 17.066667 0 0 1-17.109333-17.109334v-108.202666a17.066667 17.066667 0 0 1 17.066667-17.066667z" fill="#D04C83" /><path d="M426.794667 748.586667h-170.666667a22.442667 22.442667 0 0 1-22.442667-22.357334v-512a22.442667 22.442667 0 0 1 22.442667-22.442666h170.666667a22.442667 22.442667 0 0 1 22.4 22.442666v512a22.442667 22.442667 0 0 1-22.4 22.357334z m-170.666667-546.133334a11.776 11.776 0 0 0-11.776 11.776v512a11.733333 11.733333 0 0 0 11.776 11.690667h170.666667a11.733333 11.733333 0 0 0 11.733333-11.690667v-512a11.776 11.776 0 0 0-11.733333-11.776z" fill="#A02D67" /><path d="M562.602667 342.186667a119.168 119.168 0 1 1 119.168 119.168 119.296 119.296 0 0 1-119.168-119.125334z" fill="#4F2AB5" /><path d="M681.770667 342.229333m-83.114667 0a83.114667 83.114667 0 1 0 166.229333 0 83.114667 83.114667 0 1 0-166.229333 0Z" fill="#EDC35B" /><path d="M827.861333 767.104v-256h-290.133333v256a59.818667 59.818667 0 0 0 59.733333 59.733333h170.666667a59.818667 59.818667 0 0 0 59.733333-59.733333z" fill="#D86097" /><path d="M628.48 683.52a54.357333 54.357333 0 1 1 54.314667 54.357333 54.4 54.4 0 0 1-54.357334-54.314666z" fill="#4F2AB5" /><path d="M682.794667 720.853333a37.290667 37.290667 0 1 1 37.290666-37.290666 37.290667 37.290667 0 0 1-37.290666 37.290666z" fill="#6ED6AB" /><path d="M702.976 609.024a54.357333 54.357333 0 1 1 54.4 54.314667 54.442667 54.442667 0 0 1-54.4-54.314667z" fill="#4F2AB5" /><path d="M757.333333 646.272a37.290667 37.290667 0 1 1 37.290667-37.248 37.248 37.248 0 0 1-37.290667 37.248z" fill="#6ED6AB" /><path d="M608.256 758.101333m-54.357333 0a54.357333 54.357333 0 1 0 108.714666 0 54.357333 54.357333 0 1 0-108.714666 0Z" fill="#4F2AB5" /><path d="M608.256 795.392a37.290667 37.290667 0 1 1 37.248-37.290667 37.290667 37.290667 0 0 1-37.248 37.290667z" fill="#6ED6AB" /><path d="M537.685333 489.770667h290.176v42.666666h-290.176z" fill="#D04C83" /></svg>