<?xml version="1.0" standalone="no"?><!DOCTYPE svg PUBLIC "-//W3C//DTD SVG 1.1//EN" "http://www.w3.org/Graphics/SVG/1.1/DTD/svg11.dtd"><svg class="icon" width="200px" height="200.00px" viewBox="0 0 1024 1024" version="1.1" xmlns="http://www.w3.org/2000/svg"><path d="M85.290667 128.256m42.666666 0l768 0q42.666667 0 42.666667 42.666667l0 512q0 42.666667-42.666667 42.666666l-768 0q-42.666667 0-42.666666-42.666666l0-512q0-42.666667 42.666666-42.666667Z" fill="#A02D67" /><path d="M85.290667 128.256m42.666666 0l768 0q42.666667 0 42.666667 42.666667l0 469.333333q0 42.666667-42.666667 42.666667l-768 0q-42.666667 0-42.666666-42.666667l0-469.333333q0-42.666667 42.666666-42.666667Z" fill="#D04C83" /><path d="M127.957333 153.856h768a17.066667 17.066667 0 0 1 17.066667 17.066667v469.333333a17.066667 17.066667 0 0 1-17.066667 17.066667h-768a17.066667 17.066667 0 0 1-17.066666-17.066667v-469.333333a17.066667 17.066667 0 0 1 17.066666-17.066667z" fill="#D86097" /><path d="M170.624 213.589333m42.666667 0l597.333333 0q42.666667 0 42.666667 42.666667l0 213.333333q0 42.666667-42.666667 42.666667l-597.333333 0q-42.666667 0-42.666667-42.666667l0-213.333333q0-42.666667 42.666667-42.666667Z" fill="#D04C83" /><path d="M298.624 256.256h426.666667v21.333333h-426.666667z" fill="#D86097" /><path d="M661.290667 469.589333h-298.666667a85.333333 85.333333 0 1 1 0-170.666666h298.666667a85.333333 85.333333 0 0 1 0 170.666666z m-298.666667-128a42.666667 42.666667 0 1 0 0 85.333334h298.666667a42.666667 42.666667 0 0 0 0-85.333334z" fill="#723FDB" /><path d="M661.290667 448.298667h-298.666667a64 64 0 1 1 0-128h298.666667a64 64 0 0 1 0 128z" fill="#4F2AB5" /><path d="M661.290667 448.298667a64 64 0 1 1 64-64 64 64 0 0 1-64 64z" fill="#6ED6AB" /><path d="M362.624 448.298667a64 64 0 1 1 64-64 64 64 0 0 1-64 64z" fill="#EDC35B" /><path d="M149.290667 213.589333a21.333333 21.333333 0 1 1 21.333333-21.333333 21.333333 21.333333 0 0 1-21.333333 21.333333zM874.624 213.589333a21.333333 21.333333 0 1 1 21.333333-21.333333 21.333333 21.333333 0 0 1-21.333333 21.333333zM149.290667 639.786667a21.333333 21.333333 0 1 1 21.333333-21.333334 21.333333 21.333333 0 0 1-21.333333 21.333334zM874.624 639.786667a21.333333 21.333333 0 1 1 21.333333-21.333334 21.333333 21.333333 0 0 1-21.333333 21.333334zM682.624 554.453333h-341.333333l-42.666667 128h426.666667l-42.666667-128z" fill="#A02D67" /><path d="M298.624 682.453333h426.666667v43.136h-426.666667zM663.552 768.725333H383.573333a20.906667 20.906667 0 0 1-20.906666-20.906666v-22.186667h-42.666667v22.186667a63.658667 63.658667 0 0 0 63.573333 63.573333h279.978667a20.906667 20.906667 0 0 1 0 41.813333H426.666667a21.333333 21.333333 0 1 0 0 42.666667h236.885333a63.573333 63.573333 0 0 0 0-127.146667z" fill="#301196" /></svg>