<?xml version="1.0" standalone="no"?><!DOCTYPE svg PUBLIC "-//W3C//DTD SVG 1.1//EN" "http://www.w3.org/Graphics/SVG/1.1/DTD/svg11.dtd"><svg class="icon" width="200px" height="200.00px" viewBox="0 0 1024 1024" version="1.1" xmlns="http://www.w3.org/2000/svg"><path d="M512 214.4a21.333333 21.333333 0 0 1-21.333333-21.333333v-90.88a21.333333 21.333333 0 0 1 42.666666 0v90.88a21.333333 21.333333 0 0 1-21.333333 21.333333z" fill="#4F2AB5" /><path d="M512 554.666667m-384 0a384 384 0 1 0 768 0 384 384 0 1 0-768 0Z" fill="#D04C83" /><path d="M512 554.666667m-371.157333 0a371.157333 371.157333 0 1 0 742.314666 0 371.157333 371.157333 0 1 0-742.314666 0Z" fill="#D86097" /><path d="M511.274667 342.997333V554.666667h246.570666l-11.648-100.437334-56.021333-112.426666-178.901333 1.194666z" fill="#6ED6AB" /><path d="M512.853333 342.997333V554.666667H266.282667l11.690666-100.437334 56.021334-112.426666 178.858666 1.194666zM511.274667 766.549333v-211.626666h246.570666l-11.648 100.48-56.021333 112.341333-178.901333-1.194667z" fill="#EDC35B" /><path d="M512.853333 766.549333v-211.626666H266.282667l11.690666 100.48 56.021334 112.341333 178.858666-1.194667z" fill="#6ED6AB" /><path d="M690.176 341.802667l56.021333 112.426666 11.648 100.693334h125.269334L874.197333 469.333333l-28.586666-79.146666-27.648-48.384h-127.786667z" fill="#EDC35B" /><path d="M334.208 341.802667L278.186667 454.229333l-11.648 100.693334H141.269333L150.186667 469.333333l28.586666-79.146666 27.648-48.384h127.786667z" fill="#4F2AB5" /><path d="M334.208 768.256L278.186667 655.829333l-11.648-100.693333H141.269333l8.917334 85.589333 28.586666 79.146667 27.648 48.384h127.786667z" fill="#EDC35B" /><path d="M690.176 768.256l56.021333-112.426667 11.648-100.693333h125.269334l-8.917334 85.589333-28.586666 79.146667-27.648 48.384h-127.786667z" fill="#4F2AB5" /><path d="M576 176.426667a381.312 381.312 0 0 0-64 16.64 381.312 381.312 0 0 0-64-16.64 383.573333 383.573333 0 0 0 0 756.48 381.354667 381.354667 0 0 0 64-16.64 381.354667 381.354667 0 0 0 64 16.64 383.573333 383.573333 0 0 0 0-756.48zM149.76 565.333333h106.666667a380.970667 380.970667 0 0 0 57.770666 192H211.242667a361.045333 361.045333 0 0 1-61.44-192z m372.864-234.666666V220.074667a360.234667 360.234667 0 0 1 146.432 110.592z m162.090667 21.333333a360.874667 360.874667 0 0 1 61.44 192h-223.573334v-192z m-183.466667-21.333333H354.944a360.362667 360.362667 0 0 1 146.432-110.592z m0 21.333333v192H277.845333a360.874667 360.874667 0 0 1 61.44-192z m-244.821333 192h-106.666667a360.874667 360.874667 0 0 1 61.44-192h102.997333a380.544 380.544 0 0 0-57.770666 192z m21.333333 21.333333h223.530667v192H339.2a361.045333 361.045333 0 0 1-61.44-192z m223.530667 213.333334v110.549333a360.064 360.064 0 0 1-146.432-110.506667z m21.333333 0h146.432a360.064 360.064 0 0 1-146.432 110.549333z m0-21.333334v-192h223.530667a361.045333 361.045333 0 0 1-61.44 192z m244.864-192h106.666667a361.045333 361.045333 0 0 1-61.44 192h-102.997334a380.970667 380.970667 0 0 0 57.770667-192z m0-21.333333a380.544 380.544 0 0 0-57.770667-192h102.997334a360.874667 360.874667 0 0 1 61.44 192z m29.568-213.333333h-101.418667a385.237333 385.237333 0 0 0-152.661333-125.056q16.213333-4.522667 32.981333-7.509334a361.002667 361.002667 0 0 1 221.098667 132.565334zM448 198.101333q16.810667 2.986667 32.981333 7.509334A385.237333 385.237333 0 0 0 328.32 330.666667H226.901333A361.002667 361.002667 0 0 1 448 198.101333zM226.901333 778.666667h101.418667a385.024 385.024 0 0 0 152.661333 125.098666c-10.794667 2.986667-21.76 5.504-32.981333 7.509334a361.002667 361.002667 0 0 1-221.098667-132.608z m349.098667 132.608a371.712 371.712 0 0 1-32.981333-7.509334 385.024 385.024 0 0 0 152.661333-125.098666h101.418667a361.002667 361.002667 0 0 1-221.098667 132.608zM895.872 196.650667h-21.333333v-21.333334a21.333333 21.333333 0 0 0-42.666667 0v21.333334h-21.333333a21.333333 21.333333 0 0 0 0 42.666666h21.333333v21.333334a21.333333 21.333333 0 0 0 42.666667 0v-21.333334h21.333333a21.333333 21.333333 0 0 0 0-42.666666z" fill="#D04C83" /><path d="M170.666667 855.296h-21.333334v-21.333333a21.333333 21.333333 0 0 0-42.666666 0v21.333333H85.333333a21.333333 21.333333 0 0 0 0 42.666667h21.333334v21.333333a21.333333 21.333333 0 0 0 42.666666 0v-21.333333H170.666667a21.333333 21.333333 0 0 0 0-42.666667z" fill="#4F2AB5" /></svg>