<?xml version="1.0" standalone="no"?><!DOCTYPE svg PUBLIC "-//W3C//DTD SVG 1.1//EN" "http://www.w3.org/Graphics/SVG/1.1/DTD/svg11.dtd"><svg class="icon" width="200px" height="200.00px" viewBox="0 0 1024 1024" version="1.1" xmlns="http://www.w3.org/2000/svg"><path d="M917.333333 518.570667V512a406.016 406.016 0 0 0-322.773333-396.8 42.24 42.24 0 0 0-40.106667-29.866667h-85.333333a42.197333 42.197333 0 0 0-40.106667 29.952A405.973333 405.973333 0 0 0 106.666667 512v6.570667A42.069333 42.069333 0 0 0 85.333333 554.666667v85.333333a42.666667 42.666667 0 0 0 42.666667 42.666667h46.933333v-170.666667h-25.6A363.008 363.008 0 0 1 426.453333 160v390.997333h170.666667V159.872A363.008 363.008 0 0 1 874.666667 512h-25.6v170.666667H896a42.666667 42.666667 0 0 0 42.666667-42.666667v-85.333333a42.069333 42.069333 0 0 0-21.333334-36.096z" fill="#4F2AB5" /><path d="M149.333333 341.290667m170.666667 0l384 0q170.666667 0 170.666667 170.666666l0 213.333334q0 170.666667-170.666667 170.666666l-384 0q-170.666667 0-170.666667-170.666666l0-213.333334q0-170.666667 170.666667-170.666666Z" fill="#A02D67" /><path d="M149.333333 341.290667m170.666667 0l384 0q170.666667 0 170.666667 170.666666l0 128q0 170.666667-170.666667 170.666667l-384 0q-170.666667 0-170.666667-170.666667l0-128q0-170.666667 170.666667-170.666666Z" fill="#D04C83" /><path d="M320 366.890667h384a145.066667 145.066667 0 0 1 145.066667 145.066666v128a145.066667 145.066667 0 0 1-145.066667 145.066667h-384A145.066667 145.066667 0 0 1 174.933333 640v-128a145.066667 145.066667 0 0 1 145.066667-145.066667z" fill="#D86097" /><path d="M200.576 392.490667m128 0l366.890667 0q128 0 128 128l0 111.018666q0 128-128 128l-366.890667 0q-128 0-128-128l0-111.018666q0-128 128-128Z" fill="#D04C83" /><path d="M695.466667 392.490667H383.786667V759.466667H695.466667a128 128 0 0 0 128-128V520.533333a128.384 128.384 0 0 0-128-128z" fill="#D86097" /><path d="M384 552.021333h256v42.666667H384z" fill="#EDC35B" /><path d="M512 634.666667h128v42.666666h-128z" fill="#6ED6AB" /></svg>