<?xml version="1.0" standalone="no"?><!DOCTYPE svg PUBLIC "-//W3C//DTD SVG 1.1//EN" "http://www.w3.org/Graphics/SVG/1.1/DTD/svg11.dtd"><svg class="icon" width="200px" height="200.00px" viewBox="0 0 1024 1024" version="1.1" xmlns="http://www.w3.org/2000/svg"><path d="M534.058667 266.154667a21.333333 21.333333 0 0 1-21.333334-21.333334v-85.333333a64 64 0 1 1 128 0 21.333333 21.333333 0 0 0 21.333334 21.333333 21.973333 21.973333 0 0 0 23.637333-21.333333V96.469333a21.333333 21.333333 0 1 1 42.666667 0v63.018667a65.152 65.152 0 0 1-130.304 0 21.333333 21.333333 0 1 0-42.666667 0v85.333333a21.333333 21.333333 0 0 1-21.333333 21.333334z" fill="#D04C83" /><path d="M789.333333 896a42.666667 42.666667 0 0 1-42.666666 42.666667h-469.333334a42.666667 42.666667 0 0 1-42.666666-42.666667V256a42.666667 42.666667 0 0 1 42.666666-42.666667h469.333334a42.666667 42.666667 0 0 1 42.666666 42.666667z" fill="#4F2AB5" /><path d="M789.333333 810.666667a42.666667 42.666667 0 0 1-42.666666 42.666666h-469.333334a42.666667 42.666667 0 0 1-42.666666-42.666666V256a42.666667 42.666667 0 0 1 42.666666-42.666667h469.333334a42.666667 42.666667 0 0 1 42.666666 42.666667z" fill="#723FDB" /><path d="M789.333333 343.381333v123.562667a32.938667 32.938667 0 0 0 21.333334-30.72V374.101333a32.896 32.896 0 0 0-21.333334-30.72z" fill="#4F2AB5" /><path d="M426.666667 170.666667H384a42.666667 42.666667 0 0 0-42.666667 42.666666h128a42.666667 42.666667 0 0 0-42.666666-42.666666z" fill="#EDC35B" /><path d="M277.333333 238.933333h469.333334a17.066667 17.066667 0 0 1 17.066666 17.066667v554.666667a17.066667 17.066667 0 0 1-17.066666 17.066666h-469.333334a17.066667 17.066667 0 0 1-17.066666-17.066666V256a17.066667 17.066667 0 0 1 17.066666-17.066667z" fill="#7750E2" /><path d="M763.733333 384V256a17.066667 17.066667 0 0 0-17.066666-17.066667h-469.333334a17.066667 17.066667 0 0 0-17.066666 17.066667v128z" fill="#4F2AB5" /><path d="M346.496 411.392m34.133333 0l143.232 0q34.133333 0 34.133334 34.133333l0 320.64q0 34.133333-34.133334 34.133334l-143.232 0q-34.133333 0-34.133333-34.133334l0-320.64q0-34.133333 34.133333-34.133333Z" fill="#723FDB" /><path d="M380.629333 428.501333h143.274667a17.066667 17.066667 0 0 1 17.066667 17.066667v320.597333a17.066667 17.066667 0 0 1-17.066667 17.066667H380.629333a17.066667 17.066667 0 0 1-17.066666-17.066667v-320.64a17.066667 17.066667 0 0 1 17.066666-17.066666z" fill="#4F2AB5" /><path d="M406.058667 538.410667m17.066666 0l58.325334 0q17.066667 0 17.066666 17.066666l0 100.778667q0 17.066667-17.066666 17.066667l-58.325334 0q-17.066667 0-17.066666-17.066667l0-100.778667q0-17.066667 17.066666-17.066666Z" fill="#301196" /><path d="M452.266667 490.325333m-36.437334 0a36.437333 36.437333 0 1 0 72.874667 0 36.437333 36.437333 0 1 0-72.874667 0Z" fill="#EDC35B" /><path d="M452.266667 721.408m-36.437334 0a36.437333 36.437333 0 1 0 72.874667 0 36.437333 36.437333 0 1 0-72.874667 0Z" fill="#6ED6AB" /><path d="M746.666667 213.333333H682.666667v725.333334h64a42.666667 42.666667 0 0 0 42.666666-42.666667V256a42.666667 42.666667 0 0 0-42.666666-42.666667z" fill="#723FDB" /><path d="M746.666667 213.333333H682.666667v640h64a42.666667 42.666667 0 0 0 42.666666-42.666666V256a42.666667 42.666667 0 0 0-42.666666-42.666667z" fill="#E0B453" /><path d="M746.666667 238.933333H682.666667v588.8h64a17.066667 17.066667 0 0 0 17.066666-17.066666V256a17.066667 17.066667 0 0 0-17.066666-17.066667z" fill="#EDC35B" /><path d="M653.610667 592.384l-28.373334-65.450667-28.330666 65.450667h16.170666v64.298667h24.32v-64.298667h16.213334z" fill="#723FDB" /></svg>