<?xml version="1.0" standalone="no"?><!DOCTYPE svg PUBLIC "-//W3C//DTD SVG 1.1//EN" "http://www.w3.org/Graphics/SVG/1.1/DTD/svg11.dtd"><svg class="icon" width="200px" height="200.00px" viewBox="0 0 1024 1024" version="1.1" xmlns="http://www.w3.org/2000/svg"><path d="M85.333333 298.666667m42.666667 0l768 0q42.666667 0 42.666667 42.666666l0 512q0 42.666667-42.666667 42.666667l-768 0q-42.666667 0-42.666667-42.666667l0-512q0-42.666667 42.666667-42.666666Z" fill="#A02D67" /><path d="M85.333333 298.666667m42.666667 0l768 0q42.666667 0 42.666667 42.666666l0 426.666667q0 42.666667-42.666667 42.666667l-768 0q-42.666667 0-42.666667-42.666667l0-426.666667q0-42.666667 42.666667-42.666666Z" fill="#D04C83" /><path d="M593.322667 298.666667l133.12-133.12a21.333333 21.333333 0 1 0-30.165334-30.122667L532.992 298.666667zM430.677333 298.666667h60.330667L327.68 135.424a21.333333 21.333333 0 0 0-30.165333 30.165333z" fill="#4F2AB5" /><path d="M128 324.266667h768a17.066667 17.066667 0 0 1 17.066667 17.066666v426.666667a17.066667 17.066667 0 0 1-17.066667 17.066667H128a17.066667 17.066667 0 0 1-17.066667-17.066667V341.333333a17.066667 17.066667 0 0 1 17.066667-17.066666z" fill="#D86097" /><path d="M136.533333 349.824m8.533334 0l537.6 0q8.533333 0 8.533333 8.533333l0 392.618667q0 8.533333-8.533333 8.533333l-537.6 0q-8.533333 0-8.533334-8.533333l0-392.618667q0-8.533333 8.533334-8.533333Z" fill="#D04C83" /><path d="M153.6 366.933333h520.533333v375.509334H153.6z" fill="#EDC35B" /><path d="M857.301333 448a55.466667 55.466667 0 1 1-55.466666-55.466667 55.466667 55.466667 0 0 1 55.466666 55.466667z" fill="#4F2AB5" /><path d="M835.157333 448a33.322667 33.322667 0 1 1-33.365333-33.322667 33.322667 33.322667 0 0 1 33.365333 33.322667z" fill="#6ED6AB" /><path d="M857.301333 579.498667a55.466667 55.466667 0 1 1-55.466666-55.466667 55.466667 55.466667 0 0 1 55.466666 55.466667z" fill="#4F2AB5" /><path d="M835.157333 579.498667a33.322667 33.322667 0 1 1-33.365333-33.365334 33.365333 33.365333 0 0 1 33.365333 33.365334z" fill="#EDC35B" /><path d="M737.792 675.029333h128v42.666667h-128z" fill="#4F2AB5" /><path d="M674.133333 647.68l-142.72-142.72-153.472 153.514667-70.186666-70.186667L153.6 742.4h520.533333v-94.72z" fill="#E0B453" /></svg>