<?xml version="1.0" standalone="no"?><!DOCTYPE svg PUBLIC "-//W3C//DTD SVG 1.1//EN" "http://www.w3.org/Graphics/SVG/1.1/DTD/svg11.dtd"><svg class="icon" width="200px" height="200.00px" viewBox="0 0 1024 1024" version="1.1" xmlns="http://www.w3.org/2000/svg"><path d="M768 938.666667H256a42.666667 42.666667 0 0 1-42.666667-42.666667v-170.666667h597.333334v170.666667a42.666667 42.666667 0 0 1-42.666667 42.666667z" fill="#4F2AB5" /><path d="M789.333333 213.333333a64 64 0 0 0 0-128h-554.666666a64 64 0 1 0 0 128H256v341.333334l-42.666667 85.333333v170.666667a42.666667 42.666667 0 0 0 42.666667 42.666666h512a42.666667 42.666667 0 0 0 42.666667-42.666666v-170.666667l-42.666667-85.333333V213.333333z" fill="#723FDB" /><path d="M789.333333 110.933333h-554.666666a38.4 38.4 0 0 0 0 76.8h46.933333v372.992L241.962667 640h0.64v153.6a34.133333 34.133333 0 0 0 34.133333 34.133333h470.869333a34.133333 34.133333 0 0 0 34.133334-34.133333V640h0.298666l-39.637333-79.274667V187.733333h46.933333a38.4 38.4 0 0 0 0-76.842666z" fill="#7750E2" /><path d="M303.530667 252.714667m42.666666 0l331.605334 0q42.666667 0 42.666666 42.666666l0 177.237334q0 42.666667-42.666666 42.666666l-331.605334 0q-42.666667 0-42.666666-42.666666l0-177.237334q0-42.666667 42.666666-42.666666Z" fill="#4F2AB5" /><path d="M751.658667 629.077333h-152.448a42.666667 42.666667 0 0 1-42.069334-35.413333l-4.821333-28.074667h141.226667a42.666667 42.666667 0 0 1 38.186666 23.594667zM430.762667 597.333333c0 14.677333-22.954667 26.538667-51.2 26.538667-28.288 0-51.242667-11.861333-51.242667-26.538667s22.954667-26.581333 51.2-26.581333c28.288 0 51.2 11.946667 51.2 26.581333z" fill="#4F2AB5" /><path d="M379.562667 606.336a21.333333 21.333333 0 0 1-21.333334-21.333333v-94.890667a21.333333 21.333333 0 0 1 42.666667 0v94.890667a21.333333 21.333333 0 0 1-21.333333 21.333333z" fill="#301196" /><path d="M379.52 474.197333m-64 0a64 64 0 1 0 128 0 64 64 0 1 0-128 0Z" fill="#6ED6AB" /><path d="M379.562667 523.093333a63.786667 63.786667 0 0 1-63.274667-56.405333l-0.725333 7.509333a64 64 0 0 0 128 0l-0.768-7.509333a63.786667 63.786667 0 0 1-63.232 56.448z" fill="#67C99D" /><path d="M639.402667 594.645333c0 10.24-14.165333 18.56-31.573334 18.56s-31.573333-8.32-31.573333-18.56 14.122667-18.602667 31.573333-18.602666 31.573333 8.32 31.573334 18.602666z" fill="#EDC35B" /><path d="M651.989333 594.645333a31.573333 18.602667 0 1 0 63.146667 0 31.573333 18.602667 0 1 0-63.146667 0Z" fill="#D04C83" /><path d="M234.666667 187.733333a38.4 38.4 0 0 1 0-76.8h554.666666a38.4 38.4 0 0 1 0 76.8z" fill="#EDC35B" /></svg>