<?xml version="1.0" standalone="no"?><!DOCTYPE svg PUBLIC "-//W3C//DTD SVG 1.1//EN" "http://www.w3.org/Graphics/SVG/1.1/DTD/svg11.dtd"><svg class="icon" width="200px" height="200.00px" viewBox="0 0 1024 1024" version="1.1" xmlns="http://www.w3.org/2000/svg"><path d="M449.536 127.274667h121.6a42.666667 42.666667 0 0 1 35.541333 19.114666L679.338667 256H341.333333l72.661334-109.653333a42.709333 42.709333 0 0 1 35.541333-19.072z" fill="#4F2AB5" /><path d="M85.333333 256m85.333334 0l682.666666 0q85.333333 0 85.333334 85.333333l0 469.333334q0 85.333333-85.333334 85.333333l-682.666666 0q-85.333333 0-85.333334-85.333333l0-469.333334q0-85.333333 85.333334-85.333333Z" fill="#A02D67" /><path d="M85.333333 256m85.333334 0l682.666666 0q85.333333 0 85.333334 85.333333l0 384q0 85.333333-85.333334 85.333334l-682.666666 0q-85.333333 0-85.333334-85.333334l0-384q0-85.333333 85.333334-85.333333Z" fill="#D04C83" /><path d="M299.008 256v-21.418667a21.333333 21.333333 0 0 0-21.333333-21.333333h-85.333334a21.333333 21.333333 0 0 0-21.333333 21.333333V256z" fill="#6ED6AB" /><path d="M845.653333 256v-21.418667a21.333333 21.333333 0 0 0-21.333333-21.333333h-85.333333a21.333333 21.333333 0 0 0-21.333334 21.333333V256z" fill="#EDC35B" /><path d="M170.666667 281.6h682.666666A59.733333 59.733333 0 0 1 913.066667 341.333333v384a59.733333 59.733333 0 0 1-59.733334 59.733334H170.666667A59.733333 59.733333 0 0 1 110.933333 725.333333V341.333333A59.733333 59.733333 0 0 1 170.666667 281.6z" fill="#D86097" /><path d="M362.666667 785.066667l-42.666667-251.733334 21.333333-251.733333h341.333334l21.333333 251.733333-42.666667 251.733334h-298.666666z" fill="#D04C83" /><path d="M853.333333 281.6H170.666667A59.818667 59.818667 0 0 0 110.933333 341.333333v128h802.133334V341.333333A59.818667 59.818667 0 0 0 853.333333 281.6z" fill="#EDC35B" /><path d="M512 533.333333m-192 0a192 192 0 1 0 384 0 192 192 0 1 0-384 0Z" fill="#4F2AB5" /><path d="M512 533.333333m-128 0a128 128 0 1 0 256 0 128 128 0 1 0-256 0Z" fill="#E0B453" /><path d="M469.333333 490.666667m-49.792 0a49.792 49.792 0 1 0 99.584 0 49.792 49.792 0 1 0-99.584 0Z" fill="#EDC35B" /><path d="M604.458667 592.042667a33.792 33.792 0 1 1-33.749334-33.792 33.706667 33.706667 0 0 1 33.749334 33.792z" fill="#EDC35B" /><path d="M192.341333 332.8h85.333334a21.333333 21.333333 0 0 1 0 42.666667h-85.333334a21.333333 21.333333 0 0 1 0-42.666667z" fill="#D04C83" /><path d="M793.984 360.533333m-42.666667 0a42.666667 42.666667 0 1 0 85.333334 0 42.666667 42.666667 0 1 0-85.333334 0Z" fill="#4F2AB5" /><path d="M793.984 360.533333m-21.333333 0a21.333333 21.333333 0 1 0 42.666666 0 21.333333 21.333333 0 1 0-42.666666 0Z" fill="#6ED6AB" /></svg>