<?xml version="1.0" standalone="no"?><!DOCTYPE svg PUBLIC "-//W3C//DTD SVG 1.1//EN" "http://www.w3.org/Graphics/SVG/1.1/DTD/svg11.dtd"><svg t="1690791875460" class="icon" viewBox="0 0 1024 1024" version="1.1" xmlns="http://www.w3.org/2000/svg" p-id="2280" xmlns:xlink="http://www.w3.org/1999/xlink" width="200" height="200"><path d="M720.0256 633.0496c115.168-115.5392 115.168-303.0336 0-418.5664-114.9376-115.3088-301.12-115.3088-416.0512 0-115.168 115.5328-115.168 303.0272 0 418.56L512 841.7536l208.0256-208.704z m-506.7072 90.3616c-164.96-165.4912-164.96-433.8048 0-599.296 164.96-165.4848 432.4032-165.4848 597.3632 0 164.96 165.4912 164.96 433.8048 0 599.296L512 1023.0592l-298.6816-299.648zM512 550.4c-70.6944 0-128-57.3056-128-128s57.3056-128 128-128 128 57.3056 128 128-57.3056 128-128 128z" fill="#4A4A4A" p-id="2281"></path></svg>