<svg xmlns="http://www.w3.org/2000/svg" xmlns:xlink="http://www.w3.org/1999/xlink" fill="none" version="1.1" width="7.2804179191589355" height="18" viewBox="0 0 7.2804179191589355 18"><path d="M0,0L2.22452,0L2.22452,2.22452L0,2.22452L0,0ZM5.0559,0L7.28042,0L7.28042,2.22452L5.0559,2.22452L5.0559,0ZM0,5.2588L2.22452,5.2588L2.22452,7.48332L0,7.48332L0,5.2588ZM5.0559,5.2588L7.28042,5.2588L7.28042,7.48332L5.0559,7.48332L5.0559,5.2588ZM0,10.5157L2.22452,10.5157L2.22452,12.7403L0,12.7403L0,10.5157ZM5.0559,10.5157L7.28042,10.5157L7.28042,12.7403L5.0559,12.7403L5.0559,10.5157ZM0,15.7755L2.22452,15.7755L2.22452,18L0,18L0,15.7755ZM5.0559,15.7755L7.28042,15.7755L7.28042,18L5.0559,18L5.0559,15.7755Z" fill="#6B6F73" fill-opacity="1"/></svg>